<svg xmlns="http://www.w3.org/2000/svg" style="display: none;">
<symbol id="socials-instagram" viewBox="0 0 48 48"><g clip-path="url(#socials-instagram-clip0_1341_21850)">

        <mask id="socials-instagram-mask0_1341_21850" style="mask-type:alpha" maskUnits="userSpaceOnUse" x="6" y="6"
            width="36" height="36">
            <path
                d="M42 42H6V6H42V42ZM24.0052 10.6225C20.3719 10.6225 19.9156 10.6384 18.4881 10.7033C17.0632 10.7685 16.0906 10.9939 15.2395 11.3247C14.3591 11.6663 13.6123 12.1233 12.8684 12.867C12.1238 13.6104 11.6665 14.3566 11.3235 15.236C10.9917 16.0868 10.7658 17.059 10.7017 18.4823C10.6378 19.909 10.6211 20.3651 10.6211 23.9976C10.6211 27.6301 10.6373 28.0845 10.7019 29.5112C10.7675 30.9351 10.9931 31.907 11.3238 32.7575C11.6659 33.6372 12.1233 34.3834 12.8675 35.1268C13.6112 35.8708 14.358 36.3289 15.2378 36.6705C16.0894 37.0013 17.0624 37.2267 18.487 37.2919C19.9148 37.3568 20.3707 37.3727 24.0056 37.3727C27.641 37.3727 28.0958 37.3568 29.5236 37.2919C30.9485 37.2267 31.9223 37.0013 32.7739 36.6705C33.654 36.3289 34.3997 35.8708 35.1434 35.1268C35.8879 34.3834 36.3452 33.6372 36.6882 32.7578C37.0172 31.9071 37.2432 30.9348 37.3101 29.5115C37.3742 28.0848 37.3909 27.63 37.3909 23.9976C37.3909 20.3651 37.3742 19.9093 37.3101 18.4826C37.2432 17.0587 37.0172 16.0868 36.6882 15.2363C36.3452 14.3566 35.8879 13.6104 35.1434 12.867C34.3988 12.123 33.6543 11.666 32.7731 11.3247C31.9198 10.9939 30.9466 10.7685 29.5216 10.7033C28.0942 10.6384 27.6395 10.6225 24.0052 10.6225ZM22.8065 13.0328C23.1629 13.0322 23.5605 13.0328 24.0072 13.0328C27.581 13.0328 28.0046 13.0456 29.4159 13.1097C30.721 13.1693 31.4293 13.3872 31.9011 13.5703C32.5257 13.8127 32.9711 14.1025 33.4393 14.5706C33.9077 15.0388 34.1977 15.4846 34.4409 16.1088C34.6241 16.5797 34.8425 17.2875 34.9018 18.5915C34.966 20.0015 34.98 20.4251 34.98 23.9946C34.98 27.564 34.966 27.9876 34.9018 29.3975C34.8422 30.7016 34.6241 31.4094 34.4409 31.8803C34.1983 32.5044 33.9077 32.9489 33.4393 33.4167C32.9708 33.8849 32.526 34.1747 31.9011 34.4171C31.4298 34.601 30.721 34.8183 29.4159 34.878C28.0049 34.9421 27.581 34.956 24.0072 34.956C20.4332 34.956 20.0096 34.9421 18.5986 34.878C17.2935 34.8178 16.5853 34.5999 16.1132 34.4168C15.4885 34.1744 15.0423 33.8846 14.5739 33.4165C14.1054 32.9483 13.8154 32.5036 13.5722 31.8792C13.389 31.4083 13.1707 30.7005 13.1113 29.3964C13.0471 27.9864 13.0343 27.5629 13.0343 23.9912C13.0343 20.4195 13.0471 19.9981 13.1113 18.5882C13.1709 17.2841 13.389 16.5764 13.5722 16.1049C13.8148 15.4807 14.1054 15.0349 14.5739 14.5667C15.0423 14.0986 15.4885 13.8088 16.1132 13.5658C16.585 13.3819 17.2935 13.1646 18.5986 13.1047C19.8333 13.0489 20.3119 13.0322 22.8065 13.0294V13.0328ZM24.0071 17.1289C20.2111 17.129 17.1335 20.2044 17.1335 23.9976C17.1335 27.7908 20.2112 30.8649 24.0072 30.8649C27.8033 30.8649 30.8799 27.7908 30.8799 23.9976C30.8799 20.2044 27.8031 17.129 24.0071 17.1289ZM24.0072 19.5392C26.4712 19.5392 28.469 21.5352 28.469 23.9976C28.4689 26.4597 26.4712 28.456 24.0072 28.456C21.543 28.456 19.5456 26.4597 19.5456 23.9976C19.5456 21.5352 21.543 19.5392 24.0072 19.5392ZM31.1521 15.2536C30.2654 15.2536 29.5459 15.9717 29.5459 16.858C29.5459 17.7442 30.2654 18.4631 31.1521 18.4631C32.0389 18.4631 32.7583 17.7441 32.7583 16.858C32.7583 15.972 32.0388 15.2531 31.1521 15.2531L31.1521 15.2536Z"
                fill="#D9D9D9" />
        </mask>
        <g mask="url(#socials-instagram-mask0_1341_21850)">
            <path
                d="M24.0059 6C16.491 6 14.2932 6.00776 13.866 6.0432C12.3239 6.17143 11.3642 6.41431 10.3188 6.93496C9.51307 7.33516 8.87764 7.79904 8.25053 8.44931C7.10844 9.6352 6.41626 11.0941 6.16569 12.8284C6.04387 13.6703 6.00843 13.842 6.00123 18.1424C5.99847 19.5759 6.00123 21.4625 6.00123 23.9929C6.00123 31.5037 6.00953 33.6999 6.04553 34.1264C6.17012 35.6275 6.40546 36.5718 6.90383 37.6049C7.85627 39.5823 9.6753 41.0667 11.8183 41.6206C12.5603 41.8117 13.3798 41.9169 14.432 41.9668C14.8777 41.9861 19.4212 42 23.9674 42C28.5136 42 33.0598 41.9945 33.4945 41.9723C34.7128 41.915 35.4202 41.82 36.2023 41.6178C38.3592 41.0611 40.145 39.5989 41.1168 37.5938C41.6055 36.5857 41.8533 35.6053 41.9654 34.1826C41.9898 33.8725 42 28.927 42 23.9882C42 19.0486 41.9889 14.1123 41.9646 13.8021C41.851 12.3565 41.6032 11.3844 41.0988 10.3569C40.6849 9.51583 40.2253 8.88771 39.558 8.24549C38.3672 7.10778 36.9108 6.41541 35.1754 6.16506C34.3345 6.04347 34.1671 6.00747 29.8645 6H24.0059Z"
                fill="currentColor" />
            <path
                d="M24.0059 6C16.491 6 14.2932 6.00776 13.866 6.0432C12.3239 6.17143 11.3642 6.41431 10.3188 6.93496C9.51307 7.33516 8.87764 7.79904 8.25053 8.44931C7.10844 9.6352 6.41626 11.0941 6.16569 12.8284C6.04387 13.6703 6.00843 13.842 6.00123 18.1424C5.99847 19.5759 6.00123 21.4625 6.00123 23.9929C6.00123 31.5037 6.00953 33.6999 6.04553 34.1264C6.17012 35.6275 6.40546 36.5718 6.90383 37.6049C7.85627 39.5823 9.6753 41.0667 11.8183 41.6206C12.5603 41.8117 13.3798 41.9169 14.432 41.9668C14.8777 41.9861 19.4212 42 23.9674 42C28.5136 42 33.0598 41.9945 33.4945 41.9723C34.7128 41.915 35.4202 41.82 36.2023 41.6178C38.3592 41.0611 40.145 39.5989 41.1168 37.5938C41.6055 36.5857 41.8533 35.6053 41.9654 34.1826C41.9898 33.8725 42 28.927 42 23.9882C42 19.0486 41.9889 14.1123 41.9646 13.8021C41.851 12.3565 41.6032 11.3844 41.0988 10.3569C40.6849 9.51583 40.2253 8.88771 39.558 8.24549C38.3672 7.10778 36.9108 6.41541 35.1754 6.16506C34.3345 6.04347 34.1671 6.00747 29.8645 6H24.0059Z"
                fill="currentColor" />
            <path
                d="M24.0059 6C16.491 6 14.2932 6.00776 13.866 6.0432C12.3239 6.17143 11.3642 6.41431 10.3188 6.93496C9.51307 7.33516 8.87764 7.79904 8.25053 8.44931C7.10844 9.6352 6.41626 11.0941 6.16569 12.8284C6.04387 13.6703 6.00843 13.842 6.00123 18.1424C5.99847 19.5759 6.00123 21.4625 6.00123 23.9929C6.00123 31.5037 6.00953 33.6999 6.04553 34.1264C6.17012 35.6275 6.40546 36.5718 6.90383 37.6049C7.85627 39.5823 9.6753 41.0667 11.8183 41.6206C12.5603 41.8117 13.3798 41.9169 14.432 41.9668C14.8777 41.9861 19.4212 42 23.9674 42C28.5136 42 33.0598 41.9945 33.4945 41.9723C34.7128 41.915 35.4202 41.82 36.2023 41.6178C38.3592 41.0611 40.145 39.5989 41.1168 37.5938C41.6055 36.5857 41.8533 35.6053 41.9654 34.1826C41.9898 33.8725 42 28.927 42 23.9882C42 19.0486 41.9889 14.1123 41.9646 13.8021C41.851 12.3565 41.6032 11.3844 41.0988 10.3569C40.6849 9.51583 40.2253 8.88771 39.558 8.24549C38.3672 7.10778 36.9108 6.41541 35.1754 6.16506C34.3345 6.04347 34.1671 6.00747 29.8645 6H24.0059Z"
                fill="currentColor" />
            <path
                d="M24.0059 6C16.491 6 14.2932 6.00776 13.866 6.0432C12.3239 6.17143 11.3642 6.41431 10.3188 6.93496C9.51307 7.33516 8.87764 7.79904 8.25053 8.44931C7.10844 9.6352 6.41626 11.0941 6.16569 12.8284C6.04387 13.6703 6.00843 13.842 6.00123 18.1424C5.99847 19.5759 6.00123 21.4625 6.00123 23.9929C6.00123 31.5037 6.00953 33.6999 6.04553 34.1264C6.17012 35.6275 6.40546 36.5718 6.90383 37.6049C7.85627 39.5823 9.6753 41.0667 11.8183 41.6206C12.5603 41.8117 13.3798 41.9169 14.432 41.9668C14.8777 41.9861 19.4212 42 23.9674 42C28.5136 42 33.0598 41.9945 33.4945 41.9723C34.7128 41.915 35.4202 41.82 36.2023 41.6178C38.3592 41.0611 40.145 39.5989 41.1168 37.5938C41.6055 36.5857 41.8533 35.6053 41.9654 34.1826C41.9898 33.8725 42 28.927 42 23.9882C42 19.0486 41.9889 14.1123 41.9646 13.8021C41.851 12.3565 41.6032 11.3844 41.0988 10.3569C40.6849 9.51583 40.2253 8.88771 39.558 8.24549C38.3672 7.10778 36.9108 6.41541 35.1754 6.16506C34.3345 6.04347 34.167 6.00747 29.8645 6H24.0059Z"
                fill="currentColor" />
        </g>

    </g>
    <defs>
        <clipPath id="socials-instagram-clip0_1341_21850">
            <rect width="36" height="36" fill="white" transform="translate(6 6)" />
        </clipPath>
    </defs></symbol>
<symbol id="socials-ok" viewBox="0 0 48 48"><path
        d="M24.0209 14.6519C24.7832 14.6519 25.482 14.9482 25.9691 15.4565C26.4561 15.9435 26.7737 16.6424 26.7737 17.4047C26.7737 18.1669 26.4773 18.8446 25.9691 19.3528C25.4821 19.8398 24.7832 20.1575 24.0209 20.1575C23.2586 20.1575 22.581 19.861 22.0728 19.3528C21.5857 18.8657 21.2681 18.1669 21.2681 17.4047C21.2681 16.6424 21.5646 15.9647 22.0728 15.4565C22.5598 14.9694 23.2586 14.6519 24.0209 14.6519Z"
        fill="currentColor" />
    <path fill-rule="evenodd" clip-rule="evenodd"
        d="M24.7412 6.01074C32.8939 6.01074 36.9598 6.01072 39.4802 8.55183C42 11.0717 42 15.1588 42 23.2908V24.7308C42 32.8835 42 36.9494 39.4802 39.4698C36.9603 41.9896 32.8732 41.9896 24.7412 41.9896H23.3012C15.1485 41.9896 11.0826 41.9896 8.54109 39.4698C5.99998 36.9499 6 32.8628 6 24.7308L6.02113 23.3119C6.02113 15.1592 6.02111 11.0933 8.56222 8.55183C11.0821 6.01072 15.1692 6.01074 23.3012 6.01074H24.7412ZM30.4374 23.5457C30.3315 23.3975 30.141 23.3764 30.0351 23.5034C28.341 24.9434 26.2658 25.8751 24.0423 25.8751C21.8188 25.8751 19.7436 24.9434 18.0494 23.5034C17.9224 23.3975 17.7318 23.4187 17.6259 23.5457L15.826 25.981C15.7413 26.108 15.7624 26.2774 15.8682 26.3622C17.3717 27.5903 19.1294 28.4162 20.9506 28.8397L17.4777 35.4889C17.3718 35.6795 17.52 35.9125 17.7318 35.9125H21.4375C21.5434 35.9125 21.6493 35.8489 21.6916 35.7431L24.021 30.2586L26.3503 35.7431C26.3926 35.8489 26.4985 35.9125 26.6044 35.9125H30.2891C30.5008 35.9125 30.6491 35.6795 30.5432 35.4889L27.0914 28.8397C28.9126 28.4163 30.6702 27.5903 32.1736 26.3622C32.2795 26.2775 32.3007 26.108 32.216 25.981L30.4371 23.5457H30.4374ZM24.0209 11.3061C22.3269 11.3061 20.8023 11.9838 19.7011 13.085C18.5999 14.1861 17.9223 15.7107 17.9223 17.4047C17.9223 19.0987 18.6 20.6234 19.7011 21.7245C20.8023 22.8257 22.3269 23.5034 24.0209 23.5034C25.7149 23.5034 27.2396 22.8257 28.3407 21.7245C29.4419 20.6234 30.1196 19.0987 30.1196 17.4047C30.1196 15.7107 29.4418 14.1862 28.3407 13.085C27.2396 11.9837 25.7149 11.3061 24.0209 11.3061Z"
        fill="currentColor" /></symbol>
<symbol id="socials-telegram" viewBox="0 0 48 48"><path fill-rule="evenodd" clip-rule="evenodd"
        d="M24 6C32.4853 6 36.7279 6 39.364 8.63604C42 11.2721 42 15.5147 42 24C42 32.4853 42 36.7279 39.364 39.364C36.7279 42 32.4853 42 24 42C15.5147 42 11.2721 42 8.63604 39.364C6 36.7279 6 32.4853 6 24C6 15.5147 6 11.2721 8.63604 8.63604C11.2721 6 15.5147 6 24 6ZM31.425 15.7993C31.6927 15.6866 31.9858 15.6477 32.2736 15.6867C32.5614 15.7257 32.8335 15.8411 33.0616 16.021C33.2897 16.2008 33.4654 16.4385 33.5704 16.7093C33.6755 16.9801 33.706 17.2741 33.6589 17.5608L31.2019 32.4642C30.9635 33.9017 29.3862 34.7262 28.0678 34.0101C26.9649 33.411 25.327 32.488 23.8536 31.5249C23.117 31.0428 20.8604 29.4991 21.1377 28.4006C21.376 27.4613 25.1677 23.9318 27.3344 21.8334C28.1848 21.009 27.797 20.5334 26.7927 21.2918C24.2989 23.1746 20.2949 26.0378 18.971 26.8438C17.8032 27.5545 17.1944 27.6758 16.4664 27.5545C15.1382 27.3335 13.9065 26.9912 12.9011 26.5741C11.5426 26.0108 11.6087 24.1431 12.9 23.5993L31.425 15.7993Z"
        fill="currentColor" /></symbol>
<symbol id="socials-vk" viewBox="0 0 48 48"><g style="mix-blend-mode:difference">
<path d="M8.52 8.52C6 11.064 6 15.132 6 23.28V24.72C6 32.856 6 36.924 8.52 39.48C11.064 42 15.132 42 23.28 42H24.72C32.856 42 36.924 42 39.48 39.48C42 36.936 42 32.868 42 24.72V23.28C42 15.144 42 11.076 39.48 8.52C36.936 6 32.868 6 24.72 6H23.28C15.144 6 11.076 6 8.52 8.52ZM12.072 16.956H16.2C16.332 23.82 19.356 26.724 21.756 27.324V16.956H25.632V22.872C27.996 22.62 30.492 19.92 31.332 16.944H35.196C34.8811 18.4846 34.2517 19.9436 33.3474 21.2299C32.443 22.5163 31.2831 23.6023 29.94 24.42C31.4389 25.1657 32.7625 26.2209 33.8237 27.5157C34.8848 28.8106 35.6593 30.3158 36.096 31.932H31.836C30.924 29.088 28.644 26.88 25.632 26.58V31.932H25.152C16.944 31.932 12.264 26.316 12.072 16.956Z" fill="currentColor"/>
</g></symbol>
</svg>