<svg width="20" height="20" viewBox="0 0 20 20" fill="none" xmlns="http://www.w3.org/2000/svg">
<g clip-path="url(#clip0_651_962)">
<path opacity="0.8" d="M9.9972 -0.333008C11.7555 -0.333008 13.4424 0.365119 14.6857 1.6084C15.4447 2.3674 15.9996 3.2921 16.3175 4.29688H17.4044C17.8108 4.29685 18.2132 4.38102 18.5851 4.54492C18.9106 4.68839 19.2065 4.89047 19.4591 5.13965L19.5646 5.24902L19.6642 5.36426C19.8573 5.59899 20.0131 5.86197 20.1251 6.14453L20.1779 6.28809L20.2228 6.43359C20.3184 6.77516 20.3515 7.13222 20.3195 7.48633L20.3185 7.4873L19.546 15.9893C19.4379 17.1762 18.89 18.2802 18.0099 19.084C17.1297 19.8878 15.9802 20.3337 14.7882 20.334H5.20618C4.01434 20.3337 2.86556 19.8877 1.98548 19.084C1.10538 18.2802 0.55746 17.1762 0.449346 15.9893L-0.324091 7.4873V7.48633C-0.360668 7.08157 -0.312289 6.67321 -0.18249 6.28809L-0.129755 6.14453C0.000856414 5.81499 0.190157 5.51136 0.429815 5.24902L0.535284 5.13965C0.788011 4.89033 1.08467 4.68846 1.41028 4.54492C1.78199 4.38114 2.18377 4.29689 2.58997 4.29688H3.67786C3.99582 3.29213 4.55073 2.36738 5.3097 1.6084C6.55289 0.365298 8.23912 -0.332922 9.9972 -0.333008ZM9.9972 1.66699C8.76947 1.66708 7.5919 2.15529 6.72376 3.02344C5.85573 3.89163 5.36829 5.06916 5.36829 6.29688H2.58997C2.46154 6.29689 2.33446 6.32325 2.21692 6.375C2.09926 6.42687 1.99313 6.50273 1.90638 6.59766C1.81964 6.69258 1.75411 6.80492 1.71302 6.92676C1.67195 7.04858 1.65655 7.17763 1.6681 7.30566L2.44153 15.8076C2.50437 16.4978 2.8224 17.1401 3.33411 17.6074C3.8458 18.0747 4.51424 18.3338 5.20716 18.334H14.7882C15.4812 18.3338 16.1496 18.0748 16.6613 17.6074C17.173 17.1401 17.491 16.4978 17.5538 15.8076L18.3273 7.30566C18.3388 7.17764 18.3234 7.04857 18.2824 6.92676C18.2413 6.80488 18.1748 6.6926 18.088 6.59766C18.0013 6.50288 17.896 6.42681 17.7784 6.375C17.6608 6.32314 17.533 6.29687 17.4044 6.29688H14.6271C14.6271 5.06924 14.1395 3.89162 13.2716 3.02344C12.4034 2.15521 11.225 1.66699 9.9972 1.66699ZM9.9972 3.51855C10.7339 3.51855 11.4411 3.81112 11.962 4.33203C12.483 4.85297 12.7755 5.56016 12.7755 6.29688H7.21985C7.21985 5.56016 7.5124 4.85297 8.03333 4.33203C8.55417 3.81129 9.2607 3.51864 9.9972 3.51855Z" fill="currentColor"/>
</g>
<defs>
<clipPath id="clip0_651_962">
<rect width="20" height="20" fill="white"/>
</clipPath>
</defs>
</svg>
