<svg width="42" height="42" viewBox="0 0 42 42" fill="none" xmlns="http://www.w3.org/2000/svg">
<path d="M5.3125 7C4.9644 7 4.63056 7.13828 4.38442 7.38442C4.13828 7.63056 4 7.9644 4 8.3125C4 8.6606 4.13828 8.99444 4.38442 9.24058C4.63056 9.48672 4.9644 9.625 5.3125 9.625H5.95825C6.24325 9.62549 6.52034 9.71874 6.74766 9.89065C6.97498 10.0626 7.14016 10.3038 7.21825 10.5779L11.3815 25.1466C11.617 25.9688 12.1137 26.6919 12.7966 27.2067C13.4796 27.7215 14.3115 28 15.1668 28H27.1604C27.9475 28.0001 28.7165 27.7644 29.3683 27.3231C30.0201 26.8819 30.5247 26.2554 30.817 25.5246L34.6862 15.8489C34.8453 15.4507 34.9044 15.0197 34.8584 14.5934C34.8125 14.1671 34.6627 13.7586 34.4224 13.4036C34.1821 13.0485 33.8585 12.7577 33.4798 12.5566C33.1011 12.3556 32.679 12.2503 32.2502 12.25H10.426L9.74087 9.856C9.506 9.03378 9.00985 8.31036 8.32742 7.7951C7.64498 7.27984 6.81336 7.00075 5.95825 7H5.3125ZM13.9068 24.4221L11.1768 14.875H32.2502L28.3784 24.5507C28.2809 24.7941 28.1127 25.0026 27.8957 25.1495C27.6786 25.2964 27.4225 25.3749 27.1604 25.375H15.1668C14.8818 25.3745 14.6047 25.2813 14.3773 25.1094C14.15 24.9374 13.9848 24.6962 13.9068 24.4221ZM15.8125 38.5C16.3296 38.5 16.8416 38.3982 17.3193 38.2003C17.797 38.0024 18.2311 37.7124 18.5967 37.3467C18.9624 36.9811 19.2524 36.547 19.4503 36.0693C19.6482 35.5916 19.75 35.0796 19.75 34.5625C19.75 34.0454 19.6482 33.5334 19.4503 33.0557C19.2524 32.578 18.9624 32.1439 18.5967 31.7783C18.2311 31.4126 17.797 31.1226 17.3193 30.9247C16.8416 30.7268 16.3296 30.625 15.8125 30.625C14.7682 30.625 13.7667 31.0398 13.0283 31.7783C12.2898 32.5167 11.875 33.5182 11.875 34.5625C11.875 35.6068 12.2898 36.6083 13.0283 37.3467C13.7667 38.0852 14.7682 38.5 15.8125 38.5ZM15.8125 35.875C15.4644 35.875 15.1306 35.7367 14.8844 35.4906C14.6383 35.2444 14.5 34.9106 14.5 34.5625C14.5 34.2144 14.6383 33.8806 14.8844 33.6344C15.1306 33.3883 15.4644 33.25 15.8125 33.25C16.1606 33.25 16.4944 33.3883 16.7406 33.6344C16.9867 33.8806 17.125 34.2144 17.125 34.5625C17.125 34.9106 16.9867 35.2444 16.7406 35.4906C16.4944 35.7367 16.1606 35.875 15.8125 35.875ZM26.3125 38.5C26.8296 38.5 27.3416 38.3982 27.8193 38.2003C28.297 38.0024 28.7311 37.7124 29.0967 37.3467C29.4624 36.9811 29.7524 36.547 29.9503 36.0693C30.1482 35.5916 30.25 35.0796 30.25 34.5625C30.25 34.0454 30.1482 33.5334 29.9503 33.0557C29.7524 32.578 29.4624 32.1439 29.0967 31.7783C28.7311 31.4126 28.297 31.1226 27.8193 30.9247C27.3416 30.7268 26.8296 30.625 26.3125 30.625C25.2682 30.625 24.2667 31.0398 23.5283 31.7783C22.7898 32.5167 22.375 33.5182 22.375 34.5625C22.375 35.6068 22.7898 36.6083 23.5283 37.3467C24.2667 38.0852 25.2682 38.5 26.3125 38.5ZM26.3125 35.875C25.9644 35.875 25.6306 35.7367 25.3844 35.4906C25.1383 35.2444 25 34.9106 25 34.5625C25 34.2144 25.1383 33.8806 25.3844 33.6344C25.6306 33.3883 25.9644 33.25 26.3125 33.25C26.6606 33.25 26.9944 33.3883 27.2406 33.6344C27.4867 33.8806 27.625 34.2144 27.625 34.5625C27.625 34.9106 27.4867 35.2444 27.2406 35.4906C26.9944 35.7367 26.6606 35.875 26.3125 35.875Z" fill="currentColor"/>
</svg>
