<svg width="32" height="32" viewBox="0 0 32 32" fill="none" xmlns="http://www.w3.org/2000/svg">

    <path
        d="M1.43002 5.07153V9.92882H1.42969V12.3573H1.43002V26.9288H14.7873V24.5H3.8585V12.3573H28.1443V17.0791H30.5727V5.07153H1.43002ZM3.8585 9.92849V7.50001H28.1443V9.92849H3.8585Z"
        fill="currentColor" />
    <path
        d="M5.07031 18.4285H12.3561V20.8569H5.07031V18.4285ZM26.3206 18.4285H23.7876L25.3578 16.8583L23.6408 15.1414L19.1391 19.6427L23.6405 24.1441L25.3574 22.4271L23.7872 20.8569H26.3203C27.3247 20.8569 28.1418 21.6741 28.1418 22.6785C28.1418 23.6829 27.325 24.5 26.3206 24.5H17.2134V26.9285H26.3206C28.6638 26.9285 30.5706 25.0216 30.5706 22.6785C30.5706 20.3353 28.6638 18.4285 26.3206 18.4285Z"
        fill="currentColor" />

</svg>