<svg width="32" height="32" viewBox="0 0 32 32" fill="none" xmlns="http://www.w3.org/2000/svg">

<path fill-rule="evenodd" clip-rule="evenodd" d="M29.125 27.25C29.125 28.285 28.285 29.125 27.25 29.125H22.405L15.4975 22.1266L23.5 14.1241L29.125 19.7491V27.25ZM4.75 29.125C3.715 29.125 2.875 28.285 2.875 27.25V26.3697L10.3234 19.6984L19.7509 29.125H4.75ZM8.5 4.75C10.5709 4.75 12.25 6.42906 12.25 8.5C12.25 10.5709 10.5709 12.25 8.5 12.25C6.42906 12.25 4.75 10.5709 4.75 8.5C4.75 6.42906 6.42906 4.75 8.5 4.75ZM27.25 1H4.75C2.67906 1 1 2.67906 1 4.75V27.25C1 29.3209 2.67906 31 4.75 31H27.25C29.3209 31 31 29.3209 31 27.25V4.75C31 2.67906 29.3209 1 27.25 1ZM8.5 10.375C9.535 10.375 10.375 9.535 10.375 8.5C10.375 7.465 9.535 6.625 8.5 6.625C7.465 6.625 6.625 7.465 6.625 8.5C6.625 9.535 7.465 10.375 8.5 10.375Z" fill="currentColor"/>

</svg>
