<svg width="540" height="68" viewBox="0 0 540 68" fill="none" xmlns="http://www.w3.org/2000/svg">
<path d="M125.038 24.7104V30.1421H133.657V32.9472H125.038V39.7815H121.723V21.9308H134.754V24.7104H125.038Z" fill="currentColor"/>
<path d="M143.419 40.0365C142.042 40.0365 140.707 39.841 139.415 39.45C138.14 39.059 137.128 38.5405 136.38 37.8944L137.528 35.3188C138.259 35.8968 139.151 36.3729 140.206 36.7469C141.277 37.1039 142.348 37.2824 143.419 37.2824C144.745 37.2824 145.731 37.0699 146.377 36.6449C147.04 36.2199 147.371 35.6588 147.371 34.9618C147.371 34.4518 147.184 34.0353 146.81 33.7123C146.453 33.3722 145.994 33.1087 145.433 32.9217C144.872 32.7347 144.107 32.5222 143.138 32.2842C141.778 31.9612 140.673 31.6382 139.823 31.3152C138.99 30.9922 138.267 30.4906 137.655 29.8106C137.06 29.1136 136.763 28.1785 136.763 27.0055C136.763 26.0195 137.026 25.1269 137.553 24.3279C138.097 23.5119 138.905 22.8658 139.976 22.3898C141.064 21.9138 142.39 21.6758 143.954 21.6758C145.042 21.6758 146.113 21.8118 147.167 22.0838C148.221 22.3558 149.131 22.7468 149.896 23.2568L148.85 25.8324C148.068 25.3734 147.252 25.0249 146.402 24.7869C145.552 24.5489 144.728 24.4299 143.929 24.4299C142.62 24.4299 141.642 24.6509 140.996 25.0929C140.367 25.5349 140.053 26.1215 140.053 26.8525C140.053 27.3625 140.231 27.779 140.588 28.102C140.962 28.425 141.43 28.6801 141.991 28.8671C142.552 29.0541 143.317 29.2666 144.286 29.5046C145.612 29.8106 146.7 30.1336 147.55 30.4736C148.4 30.7966 149.122 31.2982 149.717 31.9782C150.329 32.6582 150.635 33.5763 150.635 34.7323C150.635 35.7183 150.363 36.6109 149.819 37.4099C149.292 38.2089 148.485 38.8465 147.397 39.3225C146.309 39.7985 144.983 40.0365 143.419 40.0365Z" fill="currentColor"/>
<path d="M60.1241 0.491699C53.7566 3.8275 50.7268 10.1364 50.2195 13.3974C47.5887 11.4048 41.026 8.97324 34.1289 10.999C36.5085 13.4503 39.6906 15.6291 42.7931 23.3048C46.1025 31.4922 51.4584 32.661 57.0864 30.3862C62.7144 28.1113 65.7538 23.5491 62.4444 15.3617C59.3419 7.68603 60.1162 3.90802 60.1241 0.491699Z" fill="currentColor"/>
<path fill-rule="evenodd" clip-rule="evenodd" d="M88.2678 20.959C92.3303 20.9591 96.0177 22.0219 99.3303 24.1468C102.581 26.2095 105.175 29.0226 107.113 32.5855C108.332 34.8612 109.152 37.3356 109.578 40.0077C109.832 41.4409 109.966 42.9169 109.966 44.42C109.966 46.0332 109.82 47.6246 109.541 49.1732C109.104 51.7434 108.296 54.1523 107.113 56.3994C106.942 56.7076 106.763 57.0086 106.582 57.3057C102.931 63.5988 96.5126 67.9549 88.2572 67.9656L88.2587 67.9671C88.2522 67.9671 88.2456 67.9655 88.2391 67.9656C88.2351 67.9656 88.2311 67.9671 88.2271 67.9671C86.6489 67.9763 85.071 67.7558 83.489 67.3201C78.4755 66.1713 74.6135 63.4549 71.0296 59.9452C67.7066 56.6909 65.0337 53.7414 60.8729 45.7066C58.1924 47.7007 55.5899 49.805 52.9908 51.9158C54.7838 56.5309 55.7329 60.7249 57.1327 67.024L51.6992 67.0361C50.4797 62.1098 49.0504 58.9506 47.7892 56.1732C44.7394 58.5653 41.3406 60.9988 37.8019 63.0164C32.7713 65.8845 26.9779 68.2078 21.2639 67.964C8.7162 67.4283 0.00034639 57.4644 0 44.8166C8.80645e-06 42.9364 0.184369 41.0856 0.542871 39.299C0.995646 36.8969 1.77419 34.6586 2.88475 32.5855C4.66503 29.1627 7.23804 26.2636 10.5196 24.2434C10.569 24.2115 10.6178 24.1783 10.6674 24.1468C13.98 22.0219 17.6674 20.9591 21.7299 20.959C24.6115 20.959 27.2079 21.4869 29.5186 22.5408C32.3456 23.597 34.9578 25.2919 37.5395 27.7072C41.4327 31.3497 46.0826 36.6551 49.5552 44.078C52.1371 42.0209 54.7167 39.8798 57.3697 37.906C55.9585 35.0088 54.437 30.964 53.0963 27.4111L58.0726 24.5365C59.1819 28.6153 60.5785 31.3087 62.1406 34.4946C67.786 30.3034 71.8999 27.3188 75.2178 25.2989C76.7807 24.3475 78.2146 23.5807 79.5939 22.9782C82.1208 21.6328 85.0121 20.959 88.2678 20.959ZM16.7611 32.492C14.8864 33.6169 13.3863 35.2101 12.2613 37.2722C11.1987 39.3349 10.6674 41.7112 10.6674 44.3989C10.6675 47.0866 11.1988 49.4615 12.2613 51.5241C13.3864 53.5867 14.8861 55.2118 16.7611 56.3994C21.6109 59.2154 29.0241 58.6316 33.762 55.9304C37.1804 53.9814 40.6668 50.9981 43.7401 48.5401C39.7983 40.1456 35.6818 36.3715 32.7997 34.0663C28.3734 30.5261 21.7349 29.4436 16.7611 32.492ZM79.4582 32.2658C76.359 34.1526 72.2922 37.3311 66.4479 41.6727C69.992 46.8241 73.351 50.4071 76.2809 53.2764C80.8226 57.7241 87.4437 59.763 93.2365 56.3994C95.1115 55.2118 96.6113 53.5867 97.7363 51.5241C98.7989 49.4615 99.3302 47.0866 99.3303 44.3989C99.3303 41.7112 98.7989 39.3349 97.7363 37.2722C96.6114 35.2101 95.1113 33.6169 93.2365 32.492C89.4035 30.1427 83.3501 29.8965 79.4582 32.2658Z" fill="currentColor"/>
<path fill-rule="evenodd" clip-rule="evenodd" d="M182.748 21.103C186.186 21.103 189.217 21.8529 191.842 23.3529C193.663 24.3269 195.226 25.5595 196.531 27.0499V22.0405H206.844V67.0444H196.531V62.1033C195.265 63.5814 193.734 64.823 191.936 65.826C189.249 67.2636 186.186 67.9824 182.748 67.9824C178.685 67.9824 174.997 66.9506 171.684 64.888C168.434 62.8254 165.84 60.044 163.903 56.5439C162.028 52.9812 161.09 49.0117 161.09 44.6364C161.09 40.1986 162.028 36.2292 163.903 32.729C165.84 29.1663 168.434 26.3535 171.684 24.2909C174.997 22.1657 178.685 21.103 182.748 21.103ZM184.436 30.8541C181.936 30.8541 179.717 31.4479 177.779 32.6355C175.904 33.7606 174.403 35.3541 173.278 37.4168C172.216 39.4794 171.684 41.8548 171.684 44.5424C171.684 47.23 172.216 49.6055 173.278 51.6681C174.403 53.7307 175.904 55.3563 177.779 56.5439C179.717 57.6689 181.936 58.2313 184.436 58.2313C188.249 58.2313 191.311 56.9496 193.624 54.387C195.999 51.8243 197.187 48.5427 197.187 44.5424C197.187 41.8548 196.655 39.4794 195.593 37.4168C194.53 35.3542 193.03 33.7605 191.092 32.6355C189.217 31.4479 186.999 30.8541 184.436 30.8541Z" fill="currentColor"/>
<path fill-rule="evenodd" clip-rule="evenodd" d="M270.855 21.103C274.293 21.103 277.324 21.8528 279.949 23.3529C281.77 24.3269 283.333 25.5596 284.637 27.0499V22.0405H294.951V67.0444H284.637V62.1033C283.371 63.5814 281.84 64.823 280.043 65.826C277.355 67.2635 274.292 67.9824 270.855 67.9824C266.792 67.9824 263.104 66.9506 259.791 64.888C256.541 62.8254 253.947 60.0441 252.009 56.5439C250.134 52.9812 249.196 49.0117 249.196 44.6364C249.196 40.1986 250.134 36.2292 252.009 32.729C253.947 29.1662 256.541 26.3535 259.791 24.2909C263.104 22.1657 266.792 21.103 270.855 21.103ZM272.542 30.8541C270.042 30.8541 267.823 31.4479 265.885 32.6355C264.01 33.7605 262.51 35.3542 261.385 37.4168C260.323 39.4794 259.791 41.8548 259.791 44.5424C259.791 47.2301 260.323 49.6055 261.385 51.6681C262.51 53.7307 264.01 55.3563 265.885 56.5439C267.823 57.6689 270.042 58.2313 272.542 58.2313C276.355 58.2313 279.418 56.9496 281.731 54.387C284.106 51.8244 285.294 48.5426 285.294 44.5424C285.294 41.8548 284.762 39.4794 283.7 37.4168C282.637 35.3541 281.137 33.7606 279.199 32.6355C277.324 31.4479 275.105 30.8541 272.542 30.8541Z" fill="currentColor"/>
<path fill-rule="evenodd" clip-rule="evenodd" d="M316.71 27.0499C318.014 25.5596 319.577 24.3269 321.398 23.3529C324.085 21.8528 327.117 21.103 330.492 21.103C334.555 21.103 338.212 22.1657 341.462 24.2909C344.775 26.3535 347.369 29.1662 349.244 32.729C351.182 36.2292 352.151 40.1987 352.151 44.6364C352.151 49.0117 351.182 52.9812 349.244 56.5439C347.369 60.0441 344.775 62.8254 341.462 64.888C338.212 66.9507 334.555 67.9824 330.492 67.9824C327.055 67.9824 323.992 67.2635 321.304 65.826C319.526 64.8338 317.995 63.6085 316.71 62.1516V67.0444H306.396V7.25879H316.71V27.0499ZM328.805 30.8541C326.304 30.8541 324.086 31.4479 322.148 32.6355C320.21 33.7606 318.71 35.3541 317.647 37.4168C316.585 39.4794 316.054 41.8548 316.054 44.5424C316.054 47.23 316.585 49.6055 317.647 51.6681C318.71 53.7307 320.21 55.3563 322.148 56.5439C324.086 57.6689 326.305 58.2313 328.805 58.2313C331.305 58.2313 333.493 57.669 335.368 56.5439C337.306 55.3563 338.806 53.7307 339.868 51.6681C340.993 49.6055 341.556 47.2301 341.556 44.5424C341.556 41.8548 340.993 39.4794 339.868 37.4168C338.806 35.3542 337.305 33.7606 335.368 32.6355C333.493 31.4479 331.305 30.8541 328.805 30.8541Z" fill="currentColor"/>
<path fill-rule="evenodd" clip-rule="evenodd" d="M381.129 21.103C385.317 21.103 389.005 22.0717 392.193 24.0094C395.443 25.947 397.974 28.6038 399.787 31.979C401.662 35.3542 402.6 39.1983 402.6 43.511C402.6 44.261 402.537 45.0429 402.412 45.8554C402.35 46.6053 402.225 47.4494 402.037 48.3868H368.465C368.746 49.5588 369.153 50.653 369.691 51.6681C370.816 53.7932 372.41 55.4498 374.472 56.6374C376.535 57.7624 378.91 58.3253 381.598 58.3253C383.91 58.3253 386.036 57.9189 387.974 57.1064C389.974 56.2938 391.662 55.1061 393.037 53.5435L399.6 60.2002C397.412 62.7629 394.756 64.7009 391.63 66.0135C388.505 67.3261 385.192 67.9824 381.692 67.9824C377.192 67.9824 373.129 66.9821 369.503 64.982C365.941 62.9194 363.096 60.1065 360.971 56.5439C358.909 52.9812 357.877 48.9803 357.877 44.5424C357.877 40.1047 358.909 36.1357 360.971 32.6355C363.034 29.0727 365.816 26.2595 369.316 24.1969C372.879 22.1342 376.817 21.103 381.129 21.103ZM380.942 30.5726C378.317 30.5726 376.035 31.1349 374.097 32.26C372.16 33.3851 370.659 34.9792 369.597 37.0418C369.125 37.9304 368.758 38.8997 368.496 39.9487H392.448C392.178 38.6239 391.781 37.4361 391.255 36.3858C390.318 34.5107 388.974 33.0726 387.224 32.0725C385.536 31.0725 383.442 30.5726 380.942 30.5726Z" fill="currentColor"/>
<path d="M426.056 21.103C429.682 21.103 432.87 21.7593 435.62 23.0719C438.433 24.322 440.777 26.2285 442.652 28.7912L436.089 35.3544C434.776 33.7292 433.276 32.5101 431.588 31.6975C429.901 30.885 427.963 30.4786 425.775 30.4786C423.712 30.4786 422.119 30.7915 420.994 31.4165C419.869 32.0416 419.306 32.9478 419.306 34.1354C419.306 35.3854 419.869 36.3543 420.994 37.0418C422.119 37.7293 423.556 38.3232 425.306 38.8232C427.119 39.3232 428.994 39.8861 430.932 40.5111C432.932 41.0737 434.807 41.8859 436.557 42.9485C438.37 43.9486 439.839 45.3237 440.964 47.0738C442.089 48.7615 442.652 50.9809 442.652 53.731C442.652 58.1063 441.12 61.5754 438.057 64.1381C434.995 66.7007 430.838 67.9824 425.587 67.9824C423.087 67.9824 420.681 67.6695 418.368 67.0444C416.056 66.3569 413.93 65.4196 411.993 64.2321C410.055 62.982 408.367 61.4814 406.93 59.7313L413.493 53.1686C415.056 54.9811 416.837 56.3563 418.837 57.2939C420.9 58.1688 423.212 58.6063 425.775 58.6063C428.088 58.6063 429.838 58.2624 431.026 57.5749C432.213 56.8873 432.807 55.887 432.807 54.5745C432.807 53.1995 432.244 52.1372 431.119 51.3871C429.994 50.6371 428.525 50.0118 426.713 49.5117C424.963 48.9492 423.087 48.3868 421.087 47.8243C419.15 47.2618 417.275 46.5114 415.462 45.5739C413.712 44.5738 412.274 43.2297 411.149 41.5421C410.024 39.8545 409.461 37.6669 409.461 34.9794C409.461 32.1042 410.118 29.6349 411.43 27.5722C412.805 25.5096 414.712 23.9155 417.149 22.7904C419.65 21.6653 422.619 21.103 426.056 21.103Z" fill="currentColor"/>
<path fill-rule="evenodd" clip-rule="evenodd" d="M515.6 21.1025C519.038 21.1025 522.069 21.8528 524.695 23.3529C526.514 24.3261 528.076 25.5571 529.38 27.0459V22.0405L539.696 22.04V67.0444H529.38V62.1068C528.114 63.5833 526.584 64.8233 524.789 65.8255C523.194 66.6783 521.468 67.2781 519.609 67.625C518.442 67.843 517.223 67.9604 515.952 67.9789C515.937 67.9791 515.923 67.9797 515.909 67.9799C515.805 67.9812 515.702 67.9824 515.597 67.9824C511.535 67.9824 507.847 66.9507 504.534 64.888C501.284 62.8254 498.689 60.0441 496.752 56.5439C494.877 52.9812 493.939 49.0117 493.939 44.6364C493.939 40.1986 494.877 36.2292 496.752 32.729C498.689 29.1662 501.284 26.3535 504.534 24.2909C506.763 22.861 509.162 21.9126 511.73 21.4448C512.98 21.217 514.27 21.1025 515.6 21.1025ZM517.285 30.8541C516.348 30.8541 515.45 30.937 514.592 31.1039C513.162 31.3823 511.842 31.8931 510.631 32.635C508.756 33.7601 507.255 35.3537 506.13 37.4163C505.068 39.4789 504.536 41.8544 504.536 44.5419C504.536 47.2295 505.068 49.605 506.13 51.6676C507.255 53.7302 508.756 55.3558 510.631 56.5434C512.569 57.6684 514.788 58.2308 517.288 58.2308C517.714 58.2308 518.131 58.2136 518.538 58.1816C518.643 58.1733 518.747 58.1643 518.851 58.1539C519.253 58.1137 519.646 58.0582 520.029 57.986C522.596 57.5024 524.745 56.3027 526.473 54.387C528.849 51.8243 530.036 48.5426 530.036 44.5424C530.036 41.8548 529.505 39.4794 528.442 37.4168C527.38 35.3542 525.88 33.7606 523.942 32.6355C522.067 31.4479 519.848 30.8541 517.285 30.8541Z" fill="currentColor"/>
<path d="M240.323 21.103C242.573 21.103 244.605 21.5094 246.418 22.3219C247.62 22.8612 248.768 23.6209 249.86 24.6005C248.169 26.4529 246.687 28.5461 245.418 30.8807C245.065 31.5396 244.737 32.2111 244.434 32.8949C243.699 32.177 242.891 31.6528 242.011 31.3225C241.011 30.9475 239.854 30.7601 238.542 30.7601C235.667 30.7601 233.291 31.6664 231.416 33.4789C229.541 35.2916 228.603 38.1358 228.603 42.0111V67.0444H218.29V22.0405H228.603V26.7162C228.665 26.626 228.727 26.536 228.791 26.4473C231.354 22.8844 235.198 21.103 240.323 21.103Z" fill="currentColor"/>
<path d="M461.468 43.2014L479.657 22.0405H491.939L472.977 43.6181L492.877 67.0444H479.751L461.468 44.9788V67.0444H451.155V22.0098H461.468V43.2014Z" fill="currentColor"/>
</svg>
