<svg width="32" height="32" viewBox="0 0 32 32" fill="none" xmlns="http://www.w3.org/2000/svg">

<path d="M24.8547 4.44222H22.0747V1.05509C22.0747 0.718154 21.9137 0.401474 21.6415 0.202827C21.3693 0.00418037 21.0187 -0.0525155 20.6978 0.0503249L6.83966 4.4885C6.836 4.48963 6.83248 4.49089 6.82883 4.49202L6.82714 4.49258C6.82475 4.49342 6.8225 4.49441 6.81996 4.49525C6.78929 4.50538 6.75905 4.5165 6.72978 4.5293C6.71994 4.53366 6.71065 4.53872 6.70094 4.54323C6.67984 4.55322 6.6586 4.56306 6.63834 4.57432C6.62329 4.58262 6.60922 4.5919 6.59473 4.60077C6.58052 4.60963 6.56617 4.61793 6.55252 4.62736C6.53564 4.63889 6.51974 4.65141 6.50371 4.66379C6.49315 4.67209 6.48218 4.67983 6.47191 4.68841C6.45587 4.70192 6.44068 4.71627 6.42548 4.73062C6.41592 4.73962 6.40607 4.74835 6.39693 4.75763C6.38314 4.77156 6.37034 4.78633 6.35753 4.80096C6.34769 4.81208 6.3377 4.82305 6.32841 4.83458C6.31772 4.84795 6.30773 4.86188 6.29774 4.87566C6.28747 4.88973 6.27706 4.90352 6.2675 4.91815C6.25948 4.93025 6.2523 4.94291 6.24485 4.95543C6.23458 4.97246 6.22445 4.98934 6.21516 5.00692C6.20911 5.01832 6.20391 5.03014 6.19842 5.04181C6.18927 5.06081 6.18013 5.0798 6.17211 5.09935C6.16705 5.11159 6.16297 5.12411 6.15846 5.13663C6.15143 5.15591 6.14426 5.17504 6.13835 5.19488C6.1337 5.21035 6.13019 5.22611 6.12625 5.24173C6.12203 5.25875 6.11739 5.27549 6.11401 5.29279C6.10965 5.31488 6.10669 5.33739 6.10374 5.35976C6.10233 5.37116 6.10008 5.38227 6.09896 5.39367C6.09586 5.42476 6.09445 5.45613 6.09417 5.48764C6.09417 5.49088 6.09375 5.49411 6.09375 5.49735V5.4996C6.09375 5.50312 6.09375 5.50678 6.09375 5.51029V28.9447C6.09375 29.5274 6.56603 29.9998 7.14888 29.9998H15.0632V29.4042C15.0248 29.0932 14.7754 27.2894 13.99 25.6022C13.134 23.7636 11.6646 22.346 11.6497 22.3319C11.2286 21.9292 11.2137 21.2612 11.6166 20.8401C12.0195 20.4191 12.6874 20.4043 13.1084 20.8069C13.1627 20.8588 14.1453 21.8071 15.0632 23.2126V18.8254C14.7544 18.6848 14.4746 18.4862 14.2418 18.2377C13.5135 18.2686 12.8096 17.9949 12.2923 17.4776C11.7673 16.9524 11.5014 16.2419 11.5319 15.5263C11.0333 15.0434 10.7368 14.3709 10.7368 13.6561C10.7368 12.9413 11.0333 12.2686 11.5319 11.7858C11.5014 11.0703 11.7673 10.3597 12.2923 9.83451C12.8096 9.31722 13.5128 9.04401 14.2418 9.0744C14.7253 8.55851 15.4079 8.25153 16.1413 8.25153C16.8713 8.25153 17.5545 8.55865 18.0384 9.07383C18.7535 9.05892 19.4308 9.32988 19.9356 9.83451C20.4451 10.3442 20.7109 11.0333 20.6961 11.7309C21.2286 12.215 21.5457 12.9078 21.5457 13.6562C21.5457 14.4047 21.2285 15.0974 20.6962 15.5815C20.7109 16.279 20.4451 16.9682 19.9356 17.4778C19.4308 17.9825 18.748 18.2559 18.0384 18.2384C17.7943 18.4983 17.4993 18.7048 17.1735 18.8461V23.7968C17.7981 22.9443 18.3676 22.3943 18.4048 22.3587C18.8258 21.9559 19.4937 21.9707 19.8966 22.3919C20.2994 22.8129 20.2846 23.4809 19.8635 23.8837C19.8533 23.8935 18.6981 25.0152 18.0356 26.4378C17.3644 27.88 17.1924 29.4371 17.1907 29.4527C17.1869 29.489 17.1808 29.5244 17.1735 29.5595V30.0001H24.8547C25.4376 30.0001 25.9099 29.5277 25.9099 28.945V5.49735C25.9099 4.91463 25.4376 4.44222 24.8547 4.44222ZM19.9644 4.44222H13.9029L19.9644 2.50091V4.44222ZM18.9226 13.6559C18.9226 15.1895 17.675 16.4373 16.1413 16.4373C14.6076 16.4373 13.3598 15.1895 13.3598 13.6559C13.3598 12.1223 14.6076 10.8746 16.1413 10.8746C17.675 10.8746 18.9226 12.1223 18.9226 13.6559Z" fill="currentColor"/>

</svg>
