<svg width="20" height="20" viewBox="0 0 20 20" fill="none" xmlns="http://www.w3.org/2000/svg">
<path d="M3.37386 2.51087C3.37339 2.5104 3.37341 2.50964 3.37391 2.5092C5.20048 0.889092 7.55842 -0.00383482 9.99999 1.23802e-05C15.523 1.23802e-05 20 4.47701 20 10C20.0023 11.4666 19.6807 12.9082 19.0664 14.2246C18.7418 14.9203 17.7982 14.852 17.4696 14.1583L16.1554 11.3837C15.8509 10.7409 16.3198 10 17.0311 10C17.5662 10 18.006 9.56462 17.9414 9.03342C17.7895 7.78532 17.3449 6.58576 16.6381 5.53496C15.7503 4.2151 14.4893 3.18984 13.016 2.59017C11.5427 1.99049 9.92414 1.84361 8.36699 2.1683C7.28172 2.3946 6.26064 2.8428 5.36537 3.4791C4.79732 3.88284 3.95688 3.74284 3.6588 3.11289L3.37408 2.51119C3.37402 2.51107 3.37395 2.51096 3.37386 2.51087ZM16.6261 17.4891C16.6266 17.4896 16.6266 17.4904 16.6261 17.4908C14.7995 19.1109 12.4416 20.0038 9.99999 20C4.47699 20 0 15.523 0 10C0 8.49065 0.334485 7.0595 0.933221 5.77642C1.25795 5.08053 2.20211 5.14872 2.53083 5.84272L3.84458 8.61629C4.14907 9.25913 3.68021 10 2.96891 10C2.43379 10 1.99394 10.4354 2.05858 10.9666C2.21047 12.2147 2.65509 13.4142 3.36188 14.465C4.24963 15.7849 5.51069 16.8102 6.98397 17.4098C8.45724 18.0095 10.0758 18.1564 11.633 17.8317C12.7183 17.6054 13.7393 17.1572 14.6346 16.5209C15.2027 16.1172 16.0431 16.2572 16.3412 16.8871L16.6259 17.4888C16.6259 17.4889 16.626 17.489 16.6261 17.4891Z" fill="currentColor"/>
</svg>
