<svg width="32" height="32" viewBox="0 0 32 32" fill="none" xmlns="http://www.w3.org/2000/svg">

<path fill-rule="evenodd" clip-rule="evenodd" d="M16 0.410889L30.4375 7.54471V23.7676L16 30.9014L1.5625 23.7676V7.54471L16 0.410889ZM4.1875 10.4727V22.1366L14.6875 27.3248V15.6609L4.1875 10.4727ZM17.3125 15.6609V27.3248L27.8125 22.1366V10.4727L23.875 12.4183V17.6249L21.25 18.9374V13.7154L17.3125 15.6609ZM26.1622 8.36016L22.7422 10.05C22.6673 9.98817 22.5842 9.93378 22.4935 9.88845L12.6776 4.98051L16 3.33885L26.1622 8.36016ZM9.72541 6.43924L19.8274 11.4903L16 13.3815L5.83782 8.36016L9.72541 6.43924Z" fill="currentColor"/>

</svg>
