<svg width="22" height="23" viewBox="0 0 22 23" fill="none" xmlns="http://www.w3.org/2000/svg">
<path opacity="0.8" d="M19.3311 20.333V19.4121C19.3311 15.969 16.6015 13.1459 13.1826 12.9727L12.8496 12.9648H9.14551L8.8125 12.9727C5.39259 13.1457 2.66406 15.9688 2.66406 19.4121V20.333H19.3311ZM15.1641 6.97754C15.164 4.6925 13.2942 2.83301 10.9971 2.83301C8.70007 2.83318 6.83117 4.69261 6.83105 6.97754L6.83594 7.19043C6.94762 9.37705 8.77169 11.1219 10.9971 11.1221C13.2943 11.1221 15.1641 9.26267 15.1641 6.97754ZM17.1641 6.97754C17.1641 8.68341 16.4645 10.2238 15.3398 11.3359C18.8007 12.3968 21.3311 15.6093 21.3311 19.4121V22.333H0.664062V19.4121C0.664062 15.6095 3.1932 12.3969 6.6543 11.3359C5.5298 10.2238 4.83105 8.68324 4.83105 6.97754C4.83117 3.5781 7.60546 0.833183 10.9971 0.833008C14.3888 0.833008 17.164 3.578 17.1641 6.97754Z" fill="currentColor"/>
</svg>
