<svg width="146" height="91" viewBox="0 0 146 91" fill="none" xmlns="http://www.w3.org/2000/svg">
<path d="M79.4694 0.982698C71.0529 5.3919 67.0482 13.7309 66.3776 18.0412C62.9002 15.4075 54.2258 12.1935 45.1094 14.8711C48.2547 18.1111 52.4607 20.9911 56.5616 31.1367C60.9358 41.9586 68.0152 43.5036 75.4542 40.4967C82.8932 37.4899 86.9106 31.4595 82.5363 20.6376C78.4355 10.492 79.4589 5.49833 79.4694 0.982698Z" fill="white"/>
<path fill-rule="evenodd" clip-rule="evenodd" d="M116.671 28.0352C122.041 28.0353 126.914 29.44 131.293 32.2488C135.589 34.9752 139.019 38.6936 141.58 43.4028C143.191 46.4109 144.275 49.6815 144.839 53.2134C145.174 55.1078 145.351 57.0587 145.351 59.0456C145.351 61.1778 145.159 63.2814 144.789 65.3282C144.212 68.7255 143.143 71.9096 141.58 74.8797C141.354 75.2871 141.117 75.6849 140.878 76.0776C136.052 84.3957 127.569 90.1536 116.657 90.1676L116.659 90.1696C116.65 90.1697 116.642 90.1676 116.633 90.1676C116.628 90.1676 116.622 90.1696 116.617 90.1696C114.531 90.1819 112.445 89.8903 110.354 89.3145C103.728 87.796 98.6228 84.2055 93.8857 79.5664C89.4934 75.2649 85.9604 71.3664 80.4608 60.7461C76.9176 63.3818 73.4778 66.1633 70.0423 68.9533C72.4123 75.0535 73.6668 80.597 75.517 88.9231L68.3351 88.9391C66.7232 82.4276 64.8339 78.2517 63.1669 74.5807C59.1357 77.7425 54.6433 80.9591 49.9659 83.6259C43.3166 87.4169 35.6589 90.4878 28.1063 90.1656C11.5209 89.4574 0.000457852 76.2873 0 59.5698C1.16402e-05 57.0845 0.243696 54.6381 0.717557 52.2766C1.31603 49.1016 2.34509 46.1431 3.81302 43.4028C6.16616 38.8787 9.56711 35.0467 13.9047 32.3764C13.9699 32.3343 14.0344 32.2905 14.1 32.2488C18.4785 29.44 23.3524 28.0353 28.7222 28.0352C32.531 28.0352 35.9629 28.7329 39.0172 30.126C42.7539 31.522 46.2066 33.7623 49.6191 36.9548C54.765 41.7694 60.9111 48.782 65.5012 58.5935C68.914 55.8744 72.3236 53.0443 75.8303 50.4354C73.965 46.606 71.9539 41.2596 70.1818 36.5634L76.7593 32.7639C78.2256 38.1551 80.0716 41.7152 82.1363 45.9262C89.5983 40.3864 95.036 36.4415 99.4215 33.7716C101.487 32.514 103.383 31.5005 105.206 30.7041C108.546 28.9258 112.368 28.0352 116.671 28.0352ZM22.1546 43.2793C19.6766 44.7662 17.6938 46.872 16.2068 49.5977C14.8023 52.3242 14.1 55.4651 14.1 59.0177C14.1 62.5701 14.8024 65.7093 16.2068 68.4356C17.6939 71.1618 19.6762 73.3099 22.1546 74.8797C28.5649 78.6018 38.3636 77.8302 44.6261 74.2598C49.1444 71.6836 53.7527 67.7403 57.8148 64.4913C52.6046 53.3957 47.1636 48.4071 43.354 45.3602C37.5035 40.6809 28.7288 39.2499 22.1546 43.2793ZM105.026 42.9803C100.93 45.4742 95.5546 49.6756 87.8297 55.4142C92.5141 62.2232 96.954 66.9591 100.827 70.7517C106.83 76.6306 115.581 79.3256 123.238 74.8797C125.717 73.3099 127.699 71.1618 129.186 68.4356C130.591 65.7093 131.293 62.5701 131.293 59.0177C131.293 55.4651 130.591 52.3242 129.186 49.5977C127.699 46.872 125.716 44.7662 123.238 43.2793C118.172 40.174 110.171 39.8486 105.026 42.9803Z" fill="white"/>
</svg>
