<svg width="30" height="30" viewBox="0 0 30 30" fill="none" xmlns="http://www.w3.org/2000/svg">
<path d="M22.75 28.125C21.715 28.125 20.875 27.2812 20.875 26.25C20.875 25.2188 21.7188 24.375 22.75 24.375H24.625V22.5C24.625 21.4688 25.4688 20.625 26.5 20.625C27.5312 20.625 28.375 21.4688 28.375 22.5V26.25C28.375 27.2812 27.5312 28.125 26.5 28.125H22.75ZM7.75 28.125C8.785 28.125 9.625 27.2812 9.625 26.25C9.625 25.2188 8.78125 24.375 7.75 24.375H5.875V22.5C5.875 21.4688 5.03125 20.625 4 20.625C2.96875 20.625 2.125 21.4688 2.125 22.5V26.25C2.125 27.2812 2.96875 28.125 4 28.125H7.75ZM20.875 9.375H9.625C9.12772 9.375 8.65081 9.57254 8.29918 9.92418C7.94754 10.2758 7.75 10.7527 7.75 11.25V18.75C7.75 19.2473 7.94754 19.7242 8.29918 20.0758C8.65081 20.4275 9.12772 20.625 9.625 20.625H20.875C21.3723 20.625 21.8492 20.4275 22.2008 20.0758C22.5525 19.7242 22.75 19.2473 22.75 18.75V11.25C22.75 10.7527 22.5525 10.2758 22.2008 9.92418C21.8492 9.57254 21.3723 9.375 20.875 9.375ZM22.75 1.875C21.715 1.875 20.875 2.71875 20.875 3.75C20.875 4.78125 21.7188 5.625 22.75 5.625H24.625V7.5C24.625 8.53125 25.4688 9.375 26.5 9.375C27.5312 9.375 28.375 8.53125 28.375 7.5V3.75C28.375 2.71875 27.5312 1.875 26.5 1.875H22.75ZM7.75 1.875C8.785 1.875 9.625 2.71875 9.625 3.75C9.625 4.78125 8.78125 5.625 7.75 5.625H5.875V7.5C5.875 8.53125 5.03125 9.375 4 9.375C2.96875 9.375 2.125 8.53125 2.125 7.5V3.75C2.125 2.71875 2.96875 1.875 4 1.875H7.75Z" fill="currentColor"/>
</svg>
