<svg width="36" height="36" viewBox="0 0 36 36" fill="none" xmlns="http://www.w3.org/2000/svg">
<path d="M2.53078 19.9875C1.88021 19.9875 1.40285 19.3761 1.56063 18.745L1.81063 17.745C1.92193 17.2998 2.32191 16.9875 2.78078 16.9875H8.96922C9.61979 16.9875 10.0972 17.5989 9.93937 18.23L9.68937 19.23C9.57807 19.6752 9.17809 19.9875 8.71922 19.9875H2.53078ZM11 30C9.75 30 8.6875 29.5625 7.8125 28.6875C7.17927 28.0543 6.77517 27.3228 6.6002 26.4932C6.48624 25.9528 6.05228 25.5 5.5 25.5H4.00597C3.36323 25.5 2.88739 24.9024 3.03139 24.276L3.32162 23.0135C3.42602 22.5593 3.83023 22.2375 4.2962 22.2375H10.4791C10.9392 22.2375 11.3399 21.9236 11.45 21.4769L12.425 17.5231C12.5351 17.0764 12.9358 16.7625 13.3959 16.7625H14.9817C15.4406 16.7625 15.8406 16.4502 15.9519 16.005L17.3269 10.505C17.4847 9.87389 17.0073 9.2625 16.3567 9.2625H8.1777C7.70647 9.2625 7.36071 8.81966 7.475 8.3625C7.625 7.6625 7.969 7.094 8.507 6.657C9.045 6.22 9.676 6.001 10.4 6H26.2424C26.8856 6 27.3616 6.59857 27.2166 7.2253L26.3959 10.7747C26.2509 11.4014 26.7269 12 27.3701 12H30C30.3148 12 30.6111 12.1482 30.8 12.4L34.7317 17.6423C34.9024 17.8699 34.9681 18.1595 34.9123 18.4384L33.6608 24.6961C33.5673 25.1635 33.1569 25.5 32.6802 25.5H31.5C30.9477 25.5 30.5138 25.9528 30.3998 26.4932C30.2248 27.3228 29.8207 28.0543 29.1875 28.6875C28.3125 29.5625 27.25 30 26 30C24.75 30 23.6875 29.5625 22.8125 28.6875C22.1793 28.0543 21.7752 27.3228 21.6002 26.4932C21.4862 25.9528 21.0523 25.5 20.5 25.5H16.5C15.9477 25.5 15.5138 25.9528 15.3998 26.4932C15.2248 27.3228 14.8207 28.0543 14.1875 28.6875C13.3125 29.5625 12.25 30 11 30ZM5.53078 14.5125C4.88021 14.5125 4.40285 13.9011 4.56063 13.27L4.81063 12.27C4.92193 11.8248 5.32191 11.5125 5.78078 11.5125H13.4692C14.1198 11.5125 14.5972 12.1239 14.4394 12.755L14.1894 13.755C14.0781 14.2002 13.6781 14.5125 13.2192 14.5125H5.53078ZM11 27C11.425 27 11.7815 26.856 12.0695 26.568C12.3575 26.28 12.501 25.924 12.5 25.5C12.499 25.076 12.355 24.72 12.068 24.432C11.781 24.144 11.425 24 11 24C10.575 24 10.219 24.144 9.932 24.432C9.645 24.72 9.501 25.076 9.5 25.5C9.499 25.924 9.643 26.2805 9.932 26.5695C10.221 26.8585 10.577 27.002 11 27ZM26 27C26.425 27 26.7815 26.856 27.0695 26.568C27.3575 26.28 27.501 25.924 27.5 25.5C27.499 25.076 27.355 24.72 27.068 24.432C26.781 24.144 26.425 24 26 24C25.575 24 25.219 24.144 24.932 24.432C24.645 24.72 24.501 25.076 24.5 25.5C24.499 25.924 24.643 26.2805 24.932 26.5695C25.221 26.8585 25.577 27.002 26 27ZM24.6739 18.2728C24.5275 18.9 25.0036 19.5 25.6477 19.5H31.1019C31.4054 19.5 31.6661 19.2843 31.7229 18.9861C31.7561 18.8118 31.7145 18.6315 31.6082 18.4894L29.3 15.4013C29.1112 15.1487 28.8143 15 28.499 15H26.231C25.7663 15 25.3628 15.3202 25.2572 15.7728L24.6739 18.2728Z" fill="currentColor"/>
</svg>
