<svg width="23" height="22" viewBox="0 0 23 22" fill="none" xmlns="http://www.w3.org/2000/svg">
<path opacity="0.8" d="M9.17288 0.0040931C11.5834 -0.0668056 13.9304 0.78559 15.7334 2.38691C17.5364 3.98838 18.6598 6.21838 18.8731 8.6203C19.0325 10.4168 18.6729 12.2079 17.8574 13.7892L22.8291 18.76L18.7578 22.8273L13.7871 17.8586C12.2051 18.6723 10.4135 19.0298 8.61721 18.8693C6.21694 18.6548 3.98852 17.5318 2.38772 15.7307C0.787116 13.9295 -0.0655042 11.5854 0.00393094 9.17694C0.073432 6.7683 1.05977 4.47665 2.76174 2.77069L2.7637 2.76874C4.46937 1.06406 6.76232 0.0750809 9.17288 0.0040931ZM9.23245 2.00312L8.87698 2.02265C7.10688 2.15927 5.43878 2.92349 4.17776 4.18378C2.83579 5.52898 2.05775 7.33555 2.00295 9.23456L2.001 9.59003C2.0344 11.3631 2.69945 13.071 3.88284 14.4025C5.14517 15.8229 6.9029 16.708 8.79592 16.8771C10.6888 17.0462 12.5752 16.4866 14.0694 15.3127L18.7588 20.0002L20 18.76L15.3096 14.0715C16.4867 12.5781 17.049 10.6909 16.8809 8.79706C16.7232 7.02179 15.9353 5.36575 14.666 4.12519L14.4053 3.883C12.9836 2.62022 11.1334 1.94731 9.23245 2.00312Z" fill="currentColor"/>
</svg>
