<svg width="61" height="61" viewBox="0 0 61 61" fill="none" xmlns="http://www.w3.org/2000/svg">
<path d="M30.3516 0.188477C46.9201 0.188477 60.3516 13.6199 60.3516 30.1885C60.3516 46.757 46.9201 60.1885 30.3516 60.1885C13.783 60.1885 0.351562 46.757 0.351562 30.1885C0.351562 13.6199 13.783 0.188477 30.3516 0.188477ZM32.5547 12.5576C29.8284 13.9859 28.5308 16.6877 28.3135 18.084C27.187 17.2308 24.3769 16.1893 21.4238 17.0566C22.4427 18.1061 23.8055 19.0391 25.1338 22.3252C26.3344 25.2956 28.1644 26.108 30.1611 25.6943C30.5637 26.735 30.9798 27.7637 31.377 28.5791C30.241 29.4242 29.1358 30.3409 28.0303 31.2217C26.5435 28.0437 24.5526 25.7715 22.8857 24.2119C21.7806 23.1781 20.6622 22.4522 19.4521 22C18.4628 21.5487 17.35 21.3232 16.1162 21.3232C14.3769 21.3234 12.7981 21.7787 11.3799 22.6885C11.3589 22.7018 11.3373 22.715 11.3164 22.7285C9.91144 23.5935 8.81007 24.8363 8.04785 26.3018C7.57252 27.1892 7.23875 28.1476 7.04492 29.1758C6.89148 29.9406 6.8125 30.7332 6.8125 31.5381C6.81269 36.9534 10.5445 41.2197 15.917 41.4492C18.3634 41.5536 20.8442 40.559 22.998 39.3311C24.5132 38.4672 25.9686 37.4246 27.2744 36.4004C27.8143 37.5894 28.4262 38.9428 28.9482 41.0518L31.2744 41.0469C30.6751 38.35 30.2695 36.554 29.502 34.5781C30.6148 33.6744 31.7293 32.7727 32.877 31.9189C34.6583 35.3588 35.802 36.6224 37.2246 38.0156C38.759 39.5183 40.4131 40.6819 42.5596 41.1738C43.2369 41.3603 43.9133 41.4541 44.5889 41.4502H44.6016C48.1362 41.4456 50.8848 39.5801 52.4482 36.8857C52.5256 36.7586 52.6018 36.6289 52.6748 36.4971C53.1811 35.535 53.5279 34.5037 53.7148 33.4033C53.8346 32.7404 53.8964 32.0588 53.8965 31.3682C53.8965 30.7249 53.8399 30.0929 53.7314 29.4795C53.5489 28.3356 53.1966 27.276 52.6748 26.3018C51.8452 24.7764 50.7343 23.5716 49.3428 22.6885C47.9244 21.7786 46.3449 21.3233 44.6055 21.3232C43.2119 21.3233 41.9743 21.6116 40.8926 22.1875C40.302 22.4455 39.6877 22.7743 39.0186 23.1816C37.598 24.0465 35.836 25.3237 33.4189 27.1182C33.0309 26.3268 32.669 25.6053 32.3389 24.7988C34.0159 23.7034 34.7332 21.8575 33.5479 18.9248C32.2195 15.6384 32.5513 14.0204 32.5547 12.5576ZM13.9893 26.2607C16.1188 24.9558 18.9614 25.4198 20.8564 26.9355C22.0904 27.9226 23.8534 29.5381 25.541 33.1318C24.2253 34.1842 22.7321 35.4614 21.2686 36.2959C19.24 37.4525 16.0658 37.7027 13.9893 36.4971C13.1866 35.9886 12.5442 35.2931 12.0625 34.4102C11.6076 33.5271 11.3799 32.51 11.3799 31.3594C11.3799 30.2086 11.6075 29.1908 12.0625 28.3076C12.5441 27.4248 13.1867 26.7424 13.9893 26.2607ZM40.835 26.1641C42.5013 25.15 45.0924 25.2551 46.7334 26.2607C47.536 26.7424 48.1785 27.4248 48.6602 28.3076C49.1151 29.1908 49.3428 30.2086 49.3428 31.3594C49.3427 32.51 49.1151 33.5271 48.6602 34.4102C48.1785 35.2931 47.5361 35.9886 46.7334 36.4971C44.2531 37.9372 41.4183 37.0644 39.4736 35.1602C38.2192 33.9316 36.781 32.3969 35.2637 30.1914C37.7659 28.3326 39.508 26.9719 40.835 26.1641Z" fill="#99CC65"/>
</svg>
