<svg xmlns="http://www.w3.org/2000/svg" style="display: none;">
<symbol id="arrow" viewBox="0 0 27 24"><rect x="15.0469" y="0.283203" width="16" height="2" transform="rotate(45 15.0469 0.283203)" fill="currentColor"/>
<rect x="26.3594" y="11.5967" width="16" height="2" transform="rotate(135 26.3594 11.5967)" fill="currentColor"/>
<rect x="-6.95312" y="10.5967" width="32" height="2" fill="currentColor"/></symbol>
<symbol id="bag" viewBox="0 0 20 20"><g clip-path="url(#bag-clip0_651_962)">
<path opacity="0.8" d="M9.9972 -0.333008C11.7555 -0.333008 13.4424 0.365119 14.6857 1.6084C15.4447 2.3674 15.9996 3.2921 16.3175 4.29688H17.4044C17.8108 4.29685 18.2132 4.38102 18.5851 4.54492C18.9106 4.68839 19.2065 4.89047 19.4591 5.13965L19.5646 5.24902L19.6642 5.36426C19.8573 5.59899 20.0131 5.86197 20.1251 6.14453L20.1779 6.28809L20.2228 6.43359C20.3184 6.77516 20.3515 7.13222 20.3195 7.48633L20.3185 7.4873L19.546 15.9893C19.4379 17.1762 18.89 18.2802 18.0099 19.084C17.1297 19.8878 15.9802 20.3337 14.7882 20.334H5.20618C4.01434 20.3337 2.86556 19.8877 1.98548 19.084C1.10538 18.2802 0.55746 17.1762 0.449346 15.9893L-0.324091 7.4873V7.48633C-0.360668 7.08157 -0.312289 6.67321 -0.18249 6.28809L-0.129755 6.14453C0.000856414 5.81499 0.190157 5.51136 0.429815 5.24902L0.535284 5.13965C0.788011 4.89033 1.08467 4.68846 1.41028 4.54492C1.78199 4.38114 2.18377 4.29689 2.58997 4.29688H3.67786C3.99582 3.29213 4.55073 2.36738 5.3097 1.6084C6.55289 0.365298 8.23912 -0.332922 9.9972 -0.333008ZM9.9972 1.66699C8.76947 1.66708 7.5919 2.15529 6.72376 3.02344C5.85573 3.89163 5.36829 5.06916 5.36829 6.29688H2.58997C2.46154 6.29689 2.33446 6.32325 2.21692 6.375C2.09926 6.42687 1.99313 6.50273 1.90638 6.59766C1.81964 6.69258 1.75411 6.80492 1.71302 6.92676C1.67195 7.04858 1.65655 7.17763 1.6681 7.30566L2.44153 15.8076C2.50437 16.4978 2.8224 17.1401 3.33411 17.6074C3.8458 18.0747 4.51424 18.3338 5.20716 18.334H14.7882C15.4812 18.3338 16.1496 18.0748 16.6613 17.6074C17.173 17.1401 17.491 16.4978 17.5538 15.8076L18.3273 7.30566C18.3388 7.17764 18.3234 7.04857 18.2824 6.92676C18.2413 6.80488 18.1748 6.6926 18.088 6.59766C18.0013 6.50288 17.896 6.42681 17.7784 6.375C17.6608 6.32314 17.533 6.29687 17.4044 6.29688H14.6271C14.6271 5.06924 14.1395 3.89162 13.2716 3.02344C12.4034 2.15521 11.225 1.66699 9.9972 1.66699ZM9.9972 3.51855C10.7339 3.51855 11.4411 3.81112 11.962 4.33203C12.483 4.85297 12.7755 5.56016 12.7755 6.29688H7.21985C7.21985 5.56016 7.5124 4.85297 8.03333 4.33203C8.55417 3.81129 9.2607 3.51864 9.9972 3.51855Z" fill="currentColor"/>
</g>
<defs>
<clipPath id="bag-clip0_651_962">
<rect width="20" height="20" fill="white"/>
</clipPath>
</defs></symbol>
<symbol id="box" viewBox="0 0 30 30"><path d="M22.75 28.125C21.715 28.125 20.875 27.2812 20.875 26.25C20.875 25.2188 21.7188 24.375 22.75 24.375H24.625V22.5C24.625 21.4688 25.4688 20.625 26.5 20.625C27.5312 20.625 28.375 21.4688 28.375 22.5V26.25C28.375 27.2812 27.5312 28.125 26.5 28.125H22.75ZM7.75 28.125C8.785 28.125 9.625 27.2812 9.625 26.25C9.625 25.2188 8.78125 24.375 7.75 24.375H5.875V22.5C5.875 21.4688 5.03125 20.625 4 20.625C2.96875 20.625 2.125 21.4688 2.125 22.5V26.25C2.125 27.2812 2.96875 28.125 4 28.125H7.75ZM20.875 9.375H9.625C9.12772 9.375 8.65081 9.57254 8.29918 9.92418C7.94754 10.2758 7.75 10.7527 7.75 11.25V18.75C7.75 19.2473 7.94754 19.7242 8.29918 20.0758C8.65081 20.4275 9.12772 20.625 9.625 20.625H20.875C21.3723 20.625 21.8492 20.4275 22.2008 20.0758C22.5525 19.7242 22.75 19.2473 22.75 18.75V11.25C22.75 10.7527 22.5525 10.2758 22.2008 9.92418C21.8492 9.57254 21.3723 9.375 20.875 9.375ZM22.75 1.875C21.715 1.875 20.875 2.71875 20.875 3.75C20.875 4.78125 21.7188 5.625 22.75 5.625H24.625V7.5C24.625 8.53125 25.4688 9.375 26.5 9.375C27.5312 9.375 28.375 8.53125 28.375 7.5V3.75C28.375 2.71875 27.5312 1.875 26.5 1.875H22.75ZM7.75 1.875C8.785 1.875 9.625 2.71875 9.625 3.75C9.625 4.78125 8.78125 5.625 7.75 5.625H5.875V7.5C5.875 8.53125 5.03125 9.375 4 9.375C2.96875 9.375 2.125 8.53125 2.125 7.5V3.75C2.125 2.71875 2.96875 1.875 4 1.875H7.75Z" fill="currentColor"/></symbol>
<symbol id="cart" viewBox="0 0 42 42"><path d="M5.3125 7C4.9644 7 4.63056 7.13828 4.38442 7.38442C4.13828 7.63056 4 7.9644 4 8.3125C4 8.6606 4.13828 8.99444 4.38442 9.24058C4.63056 9.48672 4.9644 9.625 5.3125 9.625H5.95825C6.24325 9.62549 6.52034 9.71874 6.74766 9.89065C6.97498 10.0626 7.14016 10.3038 7.21825 10.5779L11.3815 25.1466C11.617 25.9688 12.1137 26.6919 12.7966 27.2067C13.4796 27.7215 14.3115 28 15.1668 28H27.1604C27.9475 28.0001 28.7165 27.7644 29.3683 27.3231C30.0201 26.8819 30.5247 26.2554 30.817 25.5246L34.6862 15.8489C34.8453 15.4507 34.9044 15.0197 34.8584 14.5934C34.8125 14.1671 34.6627 13.7586 34.4224 13.4036C34.1821 13.0485 33.8585 12.7577 33.4798 12.5566C33.1011 12.3556 32.679 12.2503 32.2502 12.25H10.426L9.74087 9.856C9.506 9.03378 9.00985 8.31036 8.32742 7.7951C7.64498 7.27984 6.81336 7.00075 5.95825 7H5.3125ZM13.9068 24.4221L11.1768 14.875H32.2502L28.3784 24.5507C28.2809 24.7941 28.1127 25.0026 27.8957 25.1495C27.6786 25.2964 27.4225 25.3749 27.1604 25.375H15.1668C14.8818 25.3745 14.6047 25.2813 14.3773 25.1094C14.15 24.9374 13.9848 24.6962 13.9068 24.4221ZM15.8125 38.5C16.3296 38.5 16.8416 38.3982 17.3193 38.2003C17.797 38.0024 18.2311 37.7124 18.5967 37.3467C18.9624 36.9811 19.2524 36.547 19.4503 36.0693C19.6482 35.5916 19.75 35.0796 19.75 34.5625C19.75 34.0454 19.6482 33.5334 19.4503 33.0557C19.2524 32.578 18.9624 32.1439 18.5967 31.7783C18.2311 31.4126 17.797 31.1226 17.3193 30.9247C16.8416 30.7268 16.3296 30.625 15.8125 30.625C14.7682 30.625 13.7667 31.0398 13.0283 31.7783C12.2898 32.5167 11.875 33.5182 11.875 34.5625C11.875 35.6068 12.2898 36.6083 13.0283 37.3467C13.7667 38.0852 14.7682 38.5 15.8125 38.5ZM15.8125 35.875C15.4644 35.875 15.1306 35.7367 14.8844 35.4906C14.6383 35.2444 14.5 34.9106 14.5 34.5625C14.5 34.2144 14.6383 33.8806 14.8844 33.6344C15.1306 33.3883 15.4644 33.25 15.8125 33.25C16.1606 33.25 16.4944 33.3883 16.7406 33.6344C16.9867 33.8806 17.125 34.2144 17.125 34.5625C17.125 34.9106 16.9867 35.2444 16.7406 35.4906C16.4944 35.7367 16.1606 35.875 15.8125 35.875ZM26.3125 38.5C26.8296 38.5 27.3416 38.3982 27.8193 38.2003C28.297 38.0024 28.7311 37.7124 29.0967 37.3467C29.4624 36.9811 29.7524 36.547 29.9503 36.0693C30.1482 35.5916 30.25 35.0796 30.25 34.5625C30.25 34.0454 30.1482 33.5334 29.9503 33.0557C29.7524 32.578 29.4624 32.1439 29.0967 31.7783C28.7311 31.4126 28.297 31.1226 27.8193 30.9247C27.3416 30.7268 26.8296 30.625 26.3125 30.625C25.2682 30.625 24.2667 31.0398 23.5283 31.7783C22.7898 32.5167 22.375 33.5182 22.375 34.5625C22.375 35.6068 22.7898 36.6083 23.5283 37.3467C24.2667 38.0852 25.2682 38.5 26.3125 38.5ZM26.3125 35.875C25.9644 35.875 25.6306 35.7367 25.3844 35.4906C25.1383 35.2444 25 34.9106 25 34.5625C25 34.2144 25.1383 33.8806 25.3844 33.6344C25.6306 33.3883 25.9644 33.25 26.3125 33.25C26.6606 33.25 26.9944 33.3883 27.2406 33.6344C27.4867 33.8806 27.625 34.2144 27.625 34.5625C27.625 34.9106 27.4867 35.2444 27.2406 35.4906C26.9944 35.7367 26.6606 35.875 26.3125 35.875Z" fill="currentColor"/></symbol>
<symbol id="chat" viewBox="0 0 1024 1024"><path fill="currentColor" d="M273.536 736H800a64 64 0 0 0 64-64V256a64 64 0 0 0-64-64H224a64 64 0 0 0-64 64v570.88L273.536 736zM296 800 147.968 918.4A32 32 0 0 1 96 893.44V256a128 128 0 0 1 128-128h576a128 128 0 0 1 128 128v416a128 128 0 0 1-128 128H296z"/>
    <path fill="currentColor" d="M512 499.2a51.2 51.2 0 1 1 0-102.4 51.2 51.2 0 0 1 0 102.4zm192 0a51.2 51.2 0 1 1 0-102.4 51.2 51.2 0 0 1 0 102.4zm-384 0a51.2 51.2 0 1 1 0-102.4 51.2 51.2 0 0 1 0 102.4z"/></symbol>
<symbol id="checkmark" viewBox="0 0 42 42"><path d="M6.28056 19.1999C6.98748 18.493 8.13363 18.493 8.84055 19.1999L17.8005 28.1599C19.2143 29.5737 19.2143 31.866 17.8005 33.2798L6.28056 21.7599C5.57364 21.053 5.57364 19.9068 6.28056 19.1999Z" fill="white"/>
<path d="M37.0004 11.5199C37.7073 12.2269 37.7073 13.373 37.0004 14.0799L17.8005 33.2798C16.3867 31.866 16.3867 29.5737 17.8005 28.1599L34.4404 11.5199C35.1473 10.813 36.2935 10.813 37.0004 11.5199Z" fill="white"/></symbol>
<symbol id="chevron" viewBox="0 0 16 16"><path d="M8.875 9.25332L13.775 4.5L15 5.70955L8 12.5L1 5.70955L2.225 4.5L7.125 9.25332L8.06289 10.5332L8.875 9.25332Z" fill="currentColor"/></symbol>
<symbol id="cross" viewBox="0 0 32 32"><rect x="3.97949" y="26.6074" width="32" height="2" rx="1" transform="rotate(-45 3.97949 26.6074)" fill="currentColor"/>
<rect x="26.6064" y="28.0175" width="32" height="2" rx="1" transform="rotate(-135 26.6064 28.0175)" fill="currentColor"/></symbol>
<symbol id="delivery" viewBox="0 0 36 36"><path d="M2.53078 19.9875C1.88021 19.9875 1.40285 19.3761 1.56063 18.745L1.81063 17.745C1.92193 17.2998 2.32191 16.9875 2.78078 16.9875H8.96922C9.61979 16.9875 10.0972 17.5989 9.93937 18.23L9.68937 19.23C9.57807 19.6752 9.17809 19.9875 8.71922 19.9875H2.53078ZM11 30C9.75 30 8.6875 29.5625 7.8125 28.6875C7.17927 28.0543 6.77517 27.3228 6.6002 26.4932C6.48624 25.9528 6.05228 25.5 5.5 25.5H4.00597C3.36323 25.5 2.88739 24.9024 3.03139 24.276L3.32162 23.0135C3.42602 22.5593 3.83023 22.2375 4.2962 22.2375H10.4791C10.9392 22.2375 11.3399 21.9236 11.45 21.4769L12.425 17.5231C12.5351 17.0764 12.9358 16.7625 13.3959 16.7625H14.9817C15.4406 16.7625 15.8406 16.4502 15.9519 16.005L17.3269 10.505C17.4847 9.87389 17.0073 9.2625 16.3567 9.2625H8.1777C7.70647 9.2625 7.36071 8.81966 7.475 8.3625C7.625 7.6625 7.969 7.094 8.507 6.657C9.045 6.22 9.676 6.001 10.4 6H26.2424C26.8856 6 27.3616 6.59857 27.2166 7.2253L26.3959 10.7747C26.2509 11.4014 26.7269 12 27.3701 12H30C30.3148 12 30.6111 12.1482 30.8 12.4L34.7317 17.6423C34.9024 17.8699 34.9681 18.1595 34.9123 18.4384L33.6608 24.6961C33.5673 25.1635 33.1569 25.5 32.6802 25.5H31.5C30.9477 25.5 30.5138 25.9528 30.3998 26.4932C30.2248 27.3228 29.8207 28.0543 29.1875 28.6875C28.3125 29.5625 27.25 30 26 30C24.75 30 23.6875 29.5625 22.8125 28.6875C22.1793 28.0543 21.7752 27.3228 21.6002 26.4932C21.4862 25.9528 21.0523 25.5 20.5 25.5H16.5C15.9477 25.5 15.5138 25.9528 15.3998 26.4932C15.2248 27.3228 14.8207 28.0543 14.1875 28.6875C13.3125 29.5625 12.25 30 11 30ZM5.53078 14.5125C4.88021 14.5125 4.40285 13.9011 4.56063 13.27L4.81063 12.27C4.92193 11.8248 5.32191 11.5125 5.78078 11.5125H13.4692C14.1198 11.5125 14.5972 12.1239 14.4394 12.755L14.1894 13.755C14.0781 14.2002 13.6781 14.5125 13.2192 14.5125H5.53078ZM11 27C11.425 27 11.7815 26.856 12.0695 26.568C12.3575 26.28 12.501 25.924 12.5 25.5C12.499 25.076 12.355 24.72 12.068 24.432C11.781 24.144 11.425 24 11 24C10.575 24 10.219 24.144 9.932 24.432C9.645 24.72 9.501 25.076 9.5 25.5C9.499 25.924 9.643 26.2805 9.932 26.5695C10.221 26.8585 10.577 27.002 11 27ZM26 27C26.425 27 26.7815 26.856 27.0695 26.568C27.3575 26.28 27.501 25.924 27.5 25.5C27.499 25.076 27.355 24.72 27.068 24.432C26.781 24.144 26.425 24 26 24C25.575 24 25.219 24.144 24.932 24.432C24.645 24.72 24.501 25.076 24.5 25.5C24.499 25.924 24.643 26.2805 24.932 26.5695C25.221 26.8585 25.577 27.002 26 27ZM24.6739 18.2728C24.5275 18.9 25.0036 19.5 25.6477 19.5H31.1019C31.4054 19.5 31.6661 19.2843 31.7229 18.9861C31.7561 18.8118 31.7145 18.6315 31.6082 18.4894L29.3 15.4013C29.1112 15.1487 28.8143 15 28.499 15H26.231C25.7663 15 25.3628 15.3202 25.2572 15.7728L24.6739 18.2728Z" fill="currentColor"/></symbol>
<symbol id="eye" viewBox="0 0 32 32"><path
        d="M16.108 10.044c-3.313 0-6 2.687-6 6s2.687 6 6 6 6-2.686 6-6-2.686-6-6-6zM16.108 20.044c-2.206 0-4.046-1.838-4.046-4.044s1.794-4 4-4c2.206 0 4 1.794 4 4s-1.748 4.044-3.954 4.044zM31.99 15.768c-0.012-0.050-0.006-0.104-0.021-0.153-0.006-0.021-0.020-0.033-0.027-0.051-0.011-0.028-0.008-0.062-0.023-0.089-2.909-6.66-9.177-10.492-15.857-10.492s-13.074 3.826-15.984 10.486c-0.012 0.028-0.010 0.057-0.021 0.089-0.007 0.020-0.021 0.030-0.028 0.049-0.015 0.050-0.009 0.103-0.019 0.154-0.018 0.090-0.035 0.178-0.035 0.269s0.017 0.177 0.035 0.268c0.010 0.050 0.003 0.105 0.019 0.152 0.006 0.023 0.021 0.032 0.028 0.052 0.010 0.027 0.008 0.061 0.021 0.089 2.91 6.658 9.242 10.428 15.922 10.428s13.011-3.762 15.92-10.422c0.015-0.029 0.012-0.058 0.023-0.090 0.007-0.017 0.020-0.030 0.026-0.050 0.015-0.049 0.011-0.102 0.021-0.154 0.018-0.090 0.034-0.177 0.034-0.27 0-0.088-0.017-0.175-0.035-0.266zM16 25.019c-5.665 0-11.242-2.986-13.982-8.99 2.714-5.983 8.365-9.047 14.044-9.047 5.678 0 11.203 3.067 13.918 9.053-2.713 5.982-8.301 8.984-13.981 8.984z"
        fill="currentColor">
    </path></symbol>
<symbol id="frame" viewBox="0 0 10 10"><rect x="0" width="4" height="4" fill="currentColor"/>
<rect x="6" width="4" height="4" fill="currentColor"/>
<rect x="6" y="6" width="4" height="4" fill="currentColor"/>
<rect x="0" y="6" width="4" height="4" fill="currentColor"/></symbol>
<symbol id="globe" viewBox="-1 0 19 19"><g stroke-width="0"></g>
    <g stroke-linecap="round" stroke-linejoin="round"></g>
    <g>
        <path
           fill="currentColor" d="M16.417 9.57a7.917 7.917 0 1 1-8.144-7.908 1.758 1.758 0 0 1 .451 0 7.913 7.913 0 0 1 7.693 7.907zM5.85 15.838q.254.107.515.193a11.772 11.772 0 0 1-1.572-5.92h-3.08a6.816 6.816 0 0 0 4.137 5.727zM2.226 6.922a6.727 6.727 0 0 0-.511 2.082h3.078a11.83 11.83 0 0 1 1.55-5.89q-.249.083-.493.186a6.834 6.834 0 0 0-3.624 3.622zm8.87 2.082a14.405 14.405 0 0 0-.261-2.31 9.847 9.847 0 0 0-.713-2.26c-.447-.952-1.009-1.573-1.497-1.667a8.468 8.468 0 0 0-.253 0c-.488.094-1.05.715-1.497 1.668a9.847 9.847 0 0 0-.712 2.26 14.404 14.404 0 0 0-.261 2.309zm-.974 5.676a9.844 9.844 0 0 0 .713-2.26 14.413 14.413 0 0 0 .26-2.309H5.903a14.412 14.412 0 0 0 .261 2.31 9.844 9.844 0 0 0 .712 2.259c.487 1.036 1.109 1.68 1.624 1.68s1.137-.644 1.623-1.68zm4.652-2.462a6.737 6.737 0 0 0 .513-2.107h-3.082a11.77 11.77 0 0 1-1.572 5.922q.261-.086.517-.194a6.834 6.834 0 0 0 3.624-3.621zM11.15 3.3a6.82 6.82 0 0 0-.496-.187 11.828 11.828 0 0 1 1.55 5.89h3.081A6.815 6.815 0 0 0 11.15 3.3z"></path>
    </g></symbol>
<symbol id="lock" viewBox="0 0 24 24"><path d="M12 2C9.243 2 7 4.243 7 7V10H6C5.46957 10 4.96086 10.2107 4.58579 10.5858C4.21071 10.9609 4 11.4696 4 12V20C4 20.5304 4.21071 21.0391 4.58579 21.4142C4.96086 21.7893 5.46957 22 6 22H18C18.5304 22 19.0391 21.7893 19.4142 21.4142C19.7893 21.0391 20 20.5304 20 20V12C20 11.4696 19.7893 10.9609 19.4142 10.5858C19.0391 10.2107 18.5304 10 18 10H17V7C17 4.243 14.757 2 12 2ZM9 7C9 5.346 10.346 4 12 4C13.654 4 15 5.346 15 7V10H9V7ZM13 17.723V20H11V17.723C10.6504 17.5228 10.3697 17.2213 10.1948 16.8584C10.02 16.4954 9.95928 16.0879 10.0207 15.6898C10.0821 15.2916 10.2627 14.9214 10.5388 14.6279C10.8148 14.3345 11.1733 14.1316 11.567 14.046C11.8594 13.9811 12.1627 13.9828 12.4544 14.0509C12.7461 14.1189 13.0188 14.2516 13.2524 14.4392C13.4859 14.6268 13.6743 14.8644 13.8037 15.1345C13.9331 15.4047 14.0002 15.7005 14 16C13.9994 16.3497 13.9067 16.6932 13.7311 16.9956C13.5556 17.2981 13.3034 17.549 13 17.723Z" fill="currentColor"/></symbol>
<symbol id="logo-full" viewBox="0 0 540 68"><path d="M125.038 24.7104V30.1421H133.657V32.9472H125.038V39.7815H121.723V21.9308H134.754V24.7104H125.038Z" fill="currentColor"/>
<path d="M143.419 40.0365C142.042 40.0365 140.707 39.841 139.415 39.45C138.14 39.059 137.128 38.5405 136.38 37.8944L137.528 35.3188C138.259 35.8968 139.151 36.3729 140.206 36.7469C141.277 37.1039 142.348 37.2824 143.419 37.2824C144.745 37.2824 145.731 37.0699 146.377 36.6449C147.04 36.2199 147.371 35.6588 147.371 34.9618C147.371 34.4518 147.184 34.0353 146.81 33.7123C146.453 33.3722 145.994 33.1087 145.433 32.9217C144.872 32.7347 144.107 32.5222 143.138 32.2842C141.778 31.9612 140.673 31.6382 139.823 31.3152C138.99 30.9922 138.267 30.4906 137.655 29.8106C137.06 29.1136 136.763 28.1785 136.763 27.0055C136.763 26.0195 137.026 25.1269 137.553 24.3279C138.097 23.5119 138.905 22.8658 139.976 22.3898C141.064 21.9138 142.39 21.6758 143.954 21.6758C145.042 21.6758 146.113 21.8118 147.167 22.0838C148.221 22.3558 149.131 22.7468 149.896 23.2568L148.85 25.8324C148.068 25.3734 147.252 25.0249 146.402 24.7869C145.552 24.5489 144.728 24.4299 143.929 24.4299C142.62 24.4299 141.642 24.6509 140.996 25.0929C140.367 25.5349 140.053 26.1215 140.053 26.8525C140.053 27.3625 140.231 27.779 140.588 28.102C140.962 28.425 141.43 28.6801 141.991 28.8671C142.552 29.0541 143.317 29.2666 144.286 29.5046C145.612 29.8106 146.7 30.1336 147.55 30.4736C148.4 30.7966 149.122 31.2982 149.717 31.9782C150.329 32.6582 150.635 33.5763 150.635 34.7323C150.635 35.7183 150.363 36.6109 149.819 37.4099C149.292 38.2089 148.485 38.8465 147.397 39.3225C146.309 39.7985 144.983 40.0365 143.419 40.0365Z" fill="currentColor"/>
<path d="M60.1241 0.491699C53.7566 3.8275 50.7268 10.1364 50.2195 13.3974C47.5887 11.4048 41.026 8.97324 34.1289 10.999C36.5085 13.4503 39.6906 15.6291 42.7931 23.3048C46.1025 31.4922 51.4584 32.661 57.0864 30.3862C62.7144 28.1113 65.7538 23.5491 62.4444 15.3617C59.3419 7.68603 60.1162 3.90802 60.1241 0.491699Z" fill="currentColor"/>
<path fill-rule="evenodd" clip-rule="evenodd" d="M88.2678 20.959C92.3303 20.9591 96.0177 22.0219 99.3303 24.1468C102.581 26.2095 105.175 29.0226 107.113 32.5855C108.332 34.8612 109.152 37.3356 109.578 40.0077C109.832 41.4409 109.966 42.9169 109.966 44.42C109.966 46.0332 109.82 47.6246 109.541 49.1732C109.104 51.7434 108.296 54.1523 107.113 56.3994C106.942 56.7076 106.763 57.0086 106.582 57.3057C102.931 63.5988 96.5126 67.9549 88.2572 67.9656L88.2587 67.9671C88.2522 67.9671 88.2456 67.9655 88.2391 67.9656C88.2351 67.9656 88.2311 67.9671 88.2271 67.9671C86.6489 67.9763 85.071 67.7558 83.489 67.3201C78.4755 66.1713 74.6135 63.4549 71.0296 59.9452C67.7066 56.6909 65.0337 53.7414 60.8729 45.7066C58.1924 47.7007 55.5899 49.805 52.9908 51.9158C54.7838 56.5309 55.7329 60.7249 57.1327 67.024L51.6992 67.0361C50.4797 62.1098 49.0504 58.9506 47.7892 56.1732C44.7394 58.5653 41.3406 60.9988 37.8019 63.0164C32.7713 65.8845 26.9779 68.2078 21.2639 67.964C8.7162 67.4283 0.00034639 57.4644 0 44.8166C8.80645e-06 42.9364 0.184369 41.0856 0.542871 39.299C0.995646 36.8969 1.77419 34.6586 2.88475 32.5855C4.66503 29.1627 7.23804 26.2636 10.5196 24.2434C10.569 24.2115 10.6178 24.1783 10.6674 24.1468C13.98 22.0219 17.6674 20.9591 21.7299 20.959C24.6115 20.959 27.2079 21.4869 29.5186 22.5408C32.3456 23.597 34.9578 25.2919 37.5395 27.7072C41.4327 31.3497 46.0826 36.6551 49.5552 44.078C52.1371 42.0209 54.7167 39.8798 57.3697 37.906C55.9585 35.0088 54.437 30.964 53.0963 27.4111L58.0726 24.5365C59.1819 28.6153 60.5785 31.3087 62.1406 34.4946C67.786 30.3034 71.8999 27.3188 75.2178 25.2989C76.7807 24.3475 78.2146 23.5807 79.5939 22.9782C82.1208 21.6328 85.0121 20.959 88.2678 20.959ZM16.7611 32.492C14.8864 33.6169 13.3863 35.2101 12.2613 37.2722C11.1987 39.3349 10.6674 41.7112 10.6674 44.3989C10.6675 47.0866 11.1988 49.4615 12.2613 51.5241C13.3864 53.5867 14.8861 55.2118 16.7611 56.3994C21.6109 59.2154 29.0241 58.6316 33.762 55.9304C37.1804 53.9814 40.6668 50.9981 43.7401 48.5401C39.7983 40.1456 35.6818 36.3715 32.7997 34.0663C28.3734 30.5261 21.7349 29.4436 16.7611 32.492ZM79.4582 32.2658C76.359 34.1526 72.2922 37.3311 66.4479 41.6727C69.992 46.8241 73.351 50.4071 76.2809 53.2764C80.8226 57.7241 87.4437 59.763 93.2365 56.3994C95.1115 55.2118 96.6113 53.5867 97.7363 51.5241C98.7989 49.4615 99.3302 47.0866 99.3303 44.3989C99.3303 41.7112 98.7989 39.3349 97.7363 37.2722C96.6114 35.2101 95.1113 33.6169 93.2365 32.492C89.4035 30.1427 83.3501 29.8965 79.4582 32.2658Z" fill="currentColor"/>
<path fill-rule="evenodd" clip-rule="evenodd" d="M182.748 21.103C186.186 21.103 189.217 21.8529 191.842 23.3529C193.663 24.3269 195.226 25.5595 196.531 27.0499V22.0405H206.844V67.0444H196.531V62.1033C195.265 63.5814 193.734 64.823 191.936 65.826C189.249 67.2636 186.186 67.9824 182.748 67.9824C178.685 67.9824 174.997 66.9506 171.684 64.888C168.434 62.8254 165.84 60.044 163.903 56.5439C162.028 52.9812 161.09 49.0117 161.09 44.6364C161.09 40.1986 162.028 36.2292 163.903 32.729C165.84 29.1663 168.434 26.3535 171.684 24.2909C174.997 22.1657 178.685 21.103 182.748 21.103ZM184.436 30.8541C181.936 30.8541 179.717 31.4479 177.779 32.6355C175.904 33.7606 174.403 35.3541 173.278 37.4168C172.216 39.4794 171.684 41.8548 171.684 44.5424C171.684 47.23 172.216 49.6055 173.278 51.6681C174.403 53.7307 175.904 55.3563 177.779 56.5439C179.717 57.6689 181.936 58.2313 184.436 58.2313C188.249 58.2313 191.311 56.9496 193.624 54.387C195.999 51.8243 197.187 48.5427 197.187 44.5424C197.187 41.8548 196.655 39.4794 195.593 37.4168C194.53 35.3542 193.03 33.7605 191.092 32.6355C189.217 31.4479 186.999 30.8541 184.436 30.8541Z" fill="currentColor"/>
<path fill-rule="evenodd" clip-rule="evenodd" d="M270.855 21.103C274.293 21.103 277.324 21.8528 279.949 23.3529C281.77 24.3269 283.333 25.5596 284.637 27.0499V22.0405H294.951V67.0444H284.637V62.1033C283.371 63.5814 281.84 64.823 280.043 65.826C277.355 67.2635 274.292 67.9824 270.855 67.9824C266.792 67.9824 263.104 66.9506 259.791 64.888C256.541 62.8254 253.947 60.0441 252.009 56.5439C250.134 52.9812 249.196 49.0117 249.196 44.6364C249.196 40.1986 250.134 36.2292 252.009 32.729C253.947 29.1662 256.541 26.3535 259.791 24.2909C263.104 22.1657 266.792 21.103 270.855 21.103ZM272.542 30.8541C270.042 30.8541 267.823 31.4479 265.885 32.6355C264.01 33.7605 262.51 35.3542 261.385 37.4168C260.323 39.4794 259.791 41.8548 259.791 44.5424C259.791 47.2301 260.323 49.6055 261.385 51.6681C262.51 53.7307 264.01 55.3563 265.885 56.5439C267.823 57.6689 270.042 58.2313 272.542 58.2313C276.355 58.2313 279.418 56.9496 281.731 54.387C284.106 51.8244 285.294 48.5426 285.294 44.5424C285.294 41.8548 284.762 39.4794 283.7 37.4168C282.637 35.3541 281.137 33.7606 279.199 32.6355C277.324 31.4479 275.105 30.8541 272.542 30.8541Z" fill="currentColor"/>
<path fill-rule="evenodd" clip-rule="evenodd" d="M316.71 27.0499C318.014 25.5596 319.577 24.3269 321.398 23.3529C324.085 21.8528 327.117 21.103 330.492 21.103C334.555 21.103 338.212 22.1657 341.462 24.2909C344.775 26.3535 347.369 29.1662 349.244 32.729C351.182 36.2292 352.151 40.1987 352.151 44.6364C352.151 49.0117 351.182 52.9812 349.244 56.5439C347.369 60.0441 344.775 62.8254 341.462 64.888C338.212 66.9507 334.555 67.9824 330.492 67.9824C327.055 67.9824 323.992 67.2635 321.304 65.826C319.526 64.8338 317.995 63.6085 316.71 62.1516V67.0444H306.396V7.25879H316.71V27.0499ZM328.805 30.8541C326.304 30.8541 324.086 31.4479 322.148 32.6355C320.21 33.7606 318.71 35.3541 317.647 37.4168C316.585 39.4794 316.054 41.8548 316.054 44.5424C316.054 47.23 316.585 49.6055 317.647 51.6681C318.71 53.7307 320.21 55.3563 322.148 56.5439C324.086 57.6689 326.305 58.2313 328.805 58.2313C331.305 58.2313 333.493 57.669 335.368 56.5439C337.306 55.3563 338.806 53.7307 339.868 51.6681C340.993 49.6055 341.556 47.2301 341.556 44.5424C341.556 41.8548 340.993 39.4794 339.868 37.4168C338.806 35.3542 337.305 33.7606 335.368 32.6355C333.493 31.4479 331.305 30.8541 328.805 30.8541Z" fill="currentColor"/>
<path fill-rule="evenodd" clip-rule="evenodd" d="M381.129 21.103C385.317 21.103 389.005 22.0717 392.193 24.0094C395.443 25.947 397.974 28.6038 399.787 31.979C401.662 35.3542 402.6 39.1983 402.6 43.511C402.6 44.261 402.537 45.0429 402.412 45.8554C402.35 46.6053 402.225 47.4494 402.037 48.3868H368.465C368.746 49.5588 369.153 50.653 369.691 51.6681C370.816 53.7932 372.41 55.4498 374.472 56.6374C376.535 57.7624 378.91 58.3253 381.598 58.3253C383.91 58.3253 386.036 57.9189 387.974 57.1064C389.974 56.2938 391.662 55.1061 393.037 53.5435L399.6 60.2002C397.412 62.7629 394.756 64.7009 391.63 66.0135C388.505 67.3261 385.192 67.9824 381.692 67.9824C377.192 67.9824 373.129 66.9821 369.503 64.982C365.941 62.9194 363.096 60.1065 360.971 56.5439C358.909 52.9812 357.877 48.9803 357.877 44.5424C357.877 40.1047 358.909 36.1357 360.971 32.6355C363.034 29.0727 365.816 26.2595 369.316 24.1969C372.879 22.1342 376.817 21.103 381.129 21.103ZM380.942 30.5726C378.317 30.5726 376.035 31.1349 374.097 32.26C372.16 33.3851 370.659 34.9792 369.597 37.0418C369.125 37.9304 368.758 38.8997 368.496 39.9487H392.448C392.178 38.6239 391.781 37.4361 391.255 36.3858C390.318 34.5107 388.974 33.0726 387.224 32.0725C385.536 31.0725 383.442 30.5726 380.942 30.5726Z" fill="currentColor"/>
<path d="M426.056 21.103C429.682 21.103 432.87 21.7593 435.62 23.0719C438.433 24.322 440.777 26.2285 442.652 28.7912L436.089 35.3544C434.776 33.7292 433.276 32.5101 431.588 31.6975C429.901 30.885 427.963 30.4786 425.775 30.4786C423.712 30.4786 422.119 30.7915 420.994 31.4165C419.869 32.0416 419.306 32.9478 419.306 34.1354C419.306 35.3854 419.869 36.3543 420.994 37.0418C422.119 37.7293 423.556 38.3232 425.306 38.8232C427.119 39.3232 428.994 39.8861 430.932 40.5111C432.932 41.0737 434.807 41.8859 436.557 42.9485C438.37 43.9486 439.839 45.3237 440.964 47.0738C442.089 48.7615 442.652 50.9809 442.652 53.731C442.652 58.1063 441.12 61.5754 438.057 64.1381C434.995 66.7007 430.838 67.9824 425.587 67.9824C423.087 67.9824 420.681 67.6695 418.368 67.0444C416.056 66.3569 413.93 65.4196 411.993 64.2321C410.055 62.982 408.367 61.4814 406.93 59.7313L413.493 53.1686C415.056 54.9811 416.837 56.3563 418.837 57.2939C420.9 58.1688 423.212 58.6063 425.775 58.6063C428.088 58.6063 429.838 58.2624 431.026 57.5749C432.213 56.8873 432.807 55.887 432.807 54.5745C432.807 53.1995 432.244 52.1372 431.119 51.3871C429.994 50.6371 428.525 50.0118 426.713 49.5117C424.963 48.9492 423.087 48.3868 421.087 47.8243C419.15 47.2618 417.275 46.5114 415.462 45.5739C413.712 44.5738 412.274 43.2297 411.149 41.5421C410.024 39.8545 409.461 37.6669 409.461 34.9794C409.461 32.1042 410.118 29.6349 411.43 27.5722C412.805 25.5096 414.712 23.9155 417.149 22.7904C419.65 21.6653 422.619 21.103 426.056 21.103Z" fill="currentColor"/>
<path fill-rule="evenodd" clip-rule="evenodd" d="M515.6 21.1025C519.038 21.1025 522.069 21.8528 524.695 23.3529C526.514 24.3261 528.076 25.5571 529.38 27.0459V22.0405L539.696 22.04V67.0444H529.38V62.1068C528.114 63.5833 526.584 64.8233 524.789 65.8255C523.194 66.6783 521.468 67.2781 519.609 67.625C518.442 67.843 517.223 67.9604 515.952 67.9789C515.937 67.9791 515.923 67.9797 515.909 67.9799C515.805 67.9812 515.702 67.9824 515.597 67.9824C511.535 67.9824 507.847 66.9507 504.534 64.888C501.284 62.8254 498.689 60.0441 496.752 56.5439C494.877 52.9812 493.939 49.0117 493.939 44.6364C493.939 40.1986 494.877 36.2292 496.752 32.729C498.689 29.1662 501.284 26.3535 504.534 24.2909C506.763 22.861 509.162 21.9126 511.73 21.4448C512.98 21.217 514.27 21.1025 515.6 21.1025ZM517.285 30.8541C516.348 30.8541 515.45 30.937 514.592 31.1039C513.162 31.3823 511.842 31.8931 510.631 32.635C508.756 33.7601 507.255 35.3537 506.13 37.4163C505.068 39.4789 504.536 41.8544 504.536 44.5419C504.536 47.2295 505.068 49.605 506.13 51.6676C507.255 53.7302 508.756 55.3558 510.631 56.5434C512.569 57.6684 514.788 58.2308 517.288 58.2308C517.714 58.2308 518.131 58.2136 518.538 58.1816C518.643 58.1733 518.747 58.1643 518.851 58.1539C519.253 58.1137 519.646 58.0582 520.029 57.986C522.596 57.5024 524.745 56.3027 526.473 54.387C528.849 51.8243 530.036 48.5426 530.036 44.5424C530.036 41.8548 529.505 39.4794 528.442 37.4168C527.38 35.3542 525.88 33.7606 523.942 32.6355C522.067 31.4479 519.848 30.8541 517.285 30.8541Z" fill="currentColor"/>
<path d="M240.323 21.103C242.573 21.103 244.605 21.5094 246.418 22.3219C247.62 22.8612 248.768 23.6209 249.86 24.6005C248.169 26.4529 246.687 28.5461 245.418 30.8807C245.065 31.5396 244.737 32.2111 244.434 32.8949C243.699 32.177 242.891 31.6528 242.011 31.3225C241.011 30.9475 239.854 30.7601 238.542 30.7601C235.667 30.7601 233.291 31.6664 231.416 33.4789C229.541 35.2916 228.603 38.1358 228.603 42.0111V67.0444H218.29V22.0405H228.603V26.7162C228.665 26.626 228.727 26.536 228.791 26.4473C231.354 22.8844 235.198 21.103 240.323 21.103Z" fill="currentColor"/>
<path d="M461.468 43.2014L479.657 22.0405H491.939L472.977 43.6181L492.877 67.0444H479.751L461.468 44.9788V67.0444H451.155V22.0098H461.468V43.2014Z" fill="currentColor"/></symbol>
<symbol id="logo-icon" viewBox="0 0 146 91"><path d="M79.4694 0.982698C71.0529 5.3919 67.0482 13.7309 66.3776 18.0412C62.9002 15.4075 54.2258 12.1935 45.1094 14.8711C48.2547 18.1111 52.4607 20.9911 56.5616 31.1367C60.9358 41.9586 68.0152 43.5036 75.4542 40.4967C82.8932 37.4899 86.9106 31.4595 82.5363 20.6376C78.4355 10.492 79.4589 5.49833 79.4694 0.982698Z" fill="currentColor"/>
<path fill-rule="evenodd" clip-rule="evenodd" d="M116.671 28.0352C122.041 28.0353 126.914 29.44 131.293 32.2488C135.589 34.9752 139.019 38.6936 141.58 43.4028C143.191 46.4109 144.275 49.6815 144.839 53.2134C145.174 55.1078 145.351 57.0587 145.351 59.0456C145.351 61.1778 145.159 63.2814 144.789 65.3282C144.212 68.7255 143.143 71.9096 141.58 74.8797C141.354 75.2871 141.117 75.6849 140.878 76.0776C136.052 84.3957 127.569 90.1536 116.657 90.1676L116.659 90.1696C116.65 90.1697 116.642 90.1676 116.633 90.1676C116.628 90.1676 116.622 90.1696 116.617 90.1696C114.531 90.1819 112.445 89.8903 110.354 89.3145C103.728 87.796 98.6228 84.2055 93.8857 79.5664C89.4934 75.2649 85.9604 71.3664 80.4608 60.7461C76.9176 63.3818 73.4778 66.1633 70.0423 68.9533C72.4123 75.0535 73.6668 80.597 75.517 88.9231L68.3351 88.9391C66.7232 82.4276 64.8339 78.2517 63.1669 74.5807C59.1357 77.7425 54.6433 80.9591 49.9659 83.6259C43.3166 87.4169 35.6589 90.4878 28.1063 90.1656C11.5209 89.4574 0.000457852 76.2873 0 59.5698C1.16402e-05 57.0845 0.243696 54.6381 0.717557 52.2766C1.31603 49.1016 2.34509 46.1431 3.81302 43.4028C6.16616 38.8787 9.56711 35.0467 13.9047 32.3764C13.9699 32.3343 14.0344 32.2905 14.1 32.2488C18.4785 29.44 23.3524 28.0353 28.7222 28.0352C32.531 28.0352 35.9629 28.7329 39.0172 30.126C42.7539 31.522 46.2066 33.7623 49.6191 36.9548C54.765 41.7694 60.9111 48.782 65.5012 58.5935C68.914 55.8744 72.3236 53.0443 75.8303 50.4354C73.965 46.606 71.9539 41.2596 70.1818 36.5634L76.7593 32.7639C78.2256 38.1551 80.0716 41.7152 82.1363 45.9262C89.5983 40.3864 95.036 36.4415 99.4215 33.7716C101.487 32.514 103.383 31.5005 105.206 30.7041C108.546 28.9258 112.368 28.0352 116.671 28.0352ZM22.1546 43.2793C19.6766 44.7662 17.6938 46.872 16.2068 49.5977C14.8023 52.3242 14.1 55.4651 14.1 59.0177C14.1 62.5701 14.8024 65.7093 16.2068 68.4356C17.6939 71.1618 19.6762 73.3099 22.1546 74.8797C28.5649 78.6018 38.3636 77.8302 44.6261 74.2598C49.1444 71.6836 53.7527 67.7403 57.8148 64.4913C52.6046 53.3957 47.1636 48.4071 43.354 45.3602C37.5035 40.6809 28.7288 39.2499 22.1546 43.2793ZM105.026 42.9803C100.93 45.4742 95.5546 49.6756 87.8297 55.4142C92.5141 62.2232 96.954 66.9591 100.827 70.7517C106.83 76.6306 115.581 79.3256 123.238 74.8797C125.717 73.3099 127.699 71.1618 129.186 68.4356C130.591 65.7093 131.293 62.5701 131.293 59.0177C131.293 55.4651 130.591 52.3242 129.186 49.5977C127.699 46.872 125.716 44.7662 123.238 43.2793C118.172 40.174 110.171 39.8486 105.026 42.9803Z" fill="currentColor"/></symbol>
<symbol id="map-pin" viewBox="0 0 16 17"><path d="M13 6.75195C12.9868 5.48727 12.4538 4.27848 11.5176 3.38867C10.5814 2.49904 9.31732 1.99994 8 2C6.68268 1.99994 5.41865 2.49904 4.48242 3.38867L4.31152 3.55957C3.48149 4.43017 3.01236 5.56629 3 6.75195C3 10.0399 7.40625 13.7004 7.59375 13.8564C7.70692 13.9493 7.85113 14 8 14C8.14887 14 8.29308 13.9493 8.40625 13.8564C8.625 13.7004 13 10.0399 13 6.75195ZM8.6875 6.5C8.6875 6.39539 8.65555 6.28774 8.58789 6.19043C8.51963 6.09235 8.41578 6.00692 8.2832 5.9541C8.14999 5.90113 7.99968 5.88634 7.85449 5.91406C7.70977 5.94173 7.58462 6.00807 7.49219 6.09668C7.40037 6.18483 7.34492 6.29001 7.32324 6.39453C7.3017 6.4985 7.31248 6.60696 7.35645 6.70898C7.40084 6.81187 7.4804 6.91007 7.59473 6.9834C7.70963 7.05709 7.85075 7.09961 8 7.09961V8.59961C7.62149 8.59961 7.25067 8.50525 6.92285 8.32715L6.78516 8.24609C6.47033 8.04415 6.21638 7.76741 6.04688 7.44434L5.97949 7.30371C5.81393 6.91999 5.77009 6.4972 5.85449 6.08984C5.93895 5.68265 6.1473 5.30824 6.45312 5.01465C6.72081 4.75773 7.053 4.57312 7.41602 4.47656L7.57324 4.44043C7.99748 4.35942 8.43727 4.40072 8.83691 4.55957C9.23647 4.71845 9.57801 4.98787 9.81836 5.33301C10.0587 5.67835 10.1875 6.08466 10.1875 6.5L10.1768 6.70801C10.1269 7.18857 9.90572 7.64087 9.54688 7.98535L9.38672 8.12402C8.9974 8.43041 8.50782 8.59961 8 8.59961V7.09961C8.20165 7.09961 8.38314 7.02203 8.50781 6.90234C8.6303 6.78469 8.6875 6.63885 8.6875 6.5ZM14.5 6.75195C14.5 8.96719 13.0827 11.0641 11.9375 12.4385C10.849 13.7448 9.71847 14.73 9.35742 15.0146C9.34305 15.0264 9.32811 15.0374 9.31348 15.0488C9.2992 15.0597 9.28763 15.0698 9.27734 15.0771L9.27637 15.0762C8.90451 15.3527 8.4563 15.5 8 15.5C7.51031 15.5 7.02804 15.3329 6.6416 15.0156L6.63477 15.0088C6.51685 14.9107 5.28745 13.8891 4.07617 12.4404C2.92926 11.0687 1.5 8.97041 1.5 6.75195V6.73633C1.51751 5.05657 2.2252 3.46429 3.44824 2.30176C4.66944 1.14114 6.30647 0.499937 8 0.5L8.31641 0.507813C9.89624 0.582358 11.4068 1.21359 12.5518 2.30176C13.7748 3.46429 14.4825 5.05657 14.5 6.73633V6.75195Z" fill="currentColor"/></symbol>
<symbol id="minus" viewBox="0 0 20 20"><g clip-path="url(#minus-clip0_1082_5968)">
<path d="M16 10.4961V11.9492H4V10.4961H16Z" fill="currentColor"/>
</g>
<defs>
<clipPath id="minus-clip0_1082_5968">
<rect width="20" height="20" fill="white"/>
</clipPath>
</defs></symbol>
<symbol id="phone" viewBox="0 0 24 24"><path d="M21,15v3.93a2,2,0,0,1-2.29,2A18,18,0,0,1,3.14,5.29,2,2,0,0,1,5.13,3H9a1,1,0,0,1,1,.89,10.74,10.74,0,0,0,1,3.78,1,1,0,0,1-.42,1.26l-.86.49a1,1,0,0,0-.33,1.46,14.08,14.08,0,0,0,3.69,3.69,1,1,0,0,0,1.46-.33l.49-.86A1,1,0,0,1,16.33,13a10.74,10.74,0,0,0,3.78,1A1,1,0,0,1,21,15Z" fill="currentColor"></path>
    <path d="M21,10a1,1,0,0,1-1-1,5,5,0,0,0-5-5,1,1,0,0,1,0-2,7,7,0,0,1,7,7A1,1,0,0,1,21,10Z" fill="currentColor"></path>
    <path d="M17,10a1,1,0,0,1-1-1,1,1,0,0,0-1-1,1,1,0,0,1,0-2,3,3,0,0,1,3,3A1,1,0,0,1,17,10Z" fill="currentColor"></path></symbol>
<symbol id="plus" viewBox="0 0 20 20"><g clip-path="url(#plus-clip0_1082_5964)">
<path d="M18.712 10.316H10.816V18.212H9.184V10.316H1.288V8.66H9.184V0.763999H10.816V8.66H18.712V10.316Z" fill="currentColor"/>
</g>
<defs>
<clipPath id="plus-clip0_1082_5964">
<rect width="20" height="20" fill="white"/>
</clipPath>
</defs></symbol>
<symbol id="rate-star" viewBox="0 0 16 16"><path d="M8 0L10.4452 4.63449L15.6085 5.52786L11.9564 9.28551L12.7023 14.4721L8 12.16L3.29772 14.4721L4.0436 9.28551L0.391548 5.52786L5.55481 4.63449L8 0Z" fill="currentColor"/></symbol>
<symbol id="refresh" viewBox="0 0 20 20"><path d="M3.37386 2.51087C3.37339 2.5104 3.37341 2.50964 3.37391 2.5092C5.20048 0.889092 7.55842 -0.00383482 9.99999 1.23802e-05C15.523 1.23802e-05 20 4.47701 20 10C20.0023 11.4666 19.6807 12.9082 19.0664 14.2246C18.7418 14.9203 17.7982 14.852 17.4696 14.1583L16.1554 11.3837C15.8509 10.7409 16.3198 10 17.0311 10C17.5662 10 18.006 9.56462 17.9414 9.03342C17.7895 7.78532 17.3449 6.58576 16.6381 5.53496C15.7503 4.2151 14.4893 3.18984 13.016 2.59017C11.5427 1.99049 9.92414 1.84361 8.36699 2.1683C7.28172 2.3946 6.26064 2.8428 5.36537 3.4791C4.79732 3.88284 3.95688 3.74284 3.6588 3.11289L3.37408 2.51119C3.37402 2.51107 3.37395 2.51096 3.37386 2.51087ZM16.6261 17.4891C16.6266 17.4896 16.6266 17.4904 16.6261 17.4908C14.7995 19.1109 12.4416 20.0038 9.99999 20C4.47699 20 0 15.523 0 10C0 8.49065 0.334485 7.0595 0.933221 5.77642C1.25795 5.08053 2.20211 5.14872 2.53083 5.84272L3.84458 8.61629C4.14907 9.25913 3.68021 10 2.96891 10C2.43379 10 1.99394 10.4354 2.05858 10.9666C2.21047 12.2147 2.65509 13.4142 3.36188 14.465C4.24963 15.7849 5.51069 16.8102 6.98397 17.4098C8.45724 18.0095 10.0758 18.1564 11.633 17.8317C12.7183 17.6054 13.7393 17.1572 14.6346 16.5209C15.2027 16.1172 16.0431 16.2572 16.3412 16.8871L16.6259 17.4888C16.6259 17.4889 16.626 17.489 16.6261 17.4891Z" fill="currentColor"/></symbol>
<symbol id="search" viewBox="0 0 21 22"><path opacity="0.8" d="M11.8271 0.00409311C9.41661 -0.0668057 7.06957 0.78559 5.26658 2.38691C3.4636 3.98838 2.34019 6.21838 2.12693 8.6203C1.93045 10.8342 2.51069 13.4406 4.46482 15.7404L0.262671 20.3244L1.73728 21.676L5.95994 17.0695C7.73714 18.2321 10.174 19.0667 12.3828 18.8693C14.7831 18.6548 17.0115 17.5318 18.6123 15.7307C20.2129 13.9295 21.0655 11.5854 20.9961 9.17694C20.9266 6.7683 19.9402 4.47665 18.2383 2.77069L18.2363 2.76874C16.5306 1.06407 14.2377 0.0750809 11.8271 0.00409311ZM11.7676 2.00312L12.123 2.02265C13.8931 2.15927 15.5612 2.92349 16.8222 4.18378C18.1642 5.52898 18.9422 7.33555 18.997 9.23456L18.999 9.59003C18.9656 11.3631 18.3006 13.071 17.1172 14.4025C15.8548 15.8229 14.0971 16.708 12.2041 16.8771C10.3111 17.0461 7.99416 16.1741 6.49998 15.0002C4.49998 13.0002 3.95103 10.6909 4.11912 8.79706C4.27677 7.02179 5.06474 5.36575 6.33396 4.12519L6.5947 3.883C8.01637 2.62022 9.86659 1.94731 11.7676 2.00312Z" fill="currentColor"/></symbol>
<symbol id="share" viewBox="0 0 32 32"><path d="M22.667 29.3333C21.5559 29.3333 20.6114 28.9444 19.8337 28.1667C19.0559 27.3889 18.667 26.4444 18.667 25.3333C18.667 25.2 18.7003 24.8889 18.767 24.4L9.40033 18.9333C9.04477 19.2667 8.63366 19.528 8.16699 19.7173C7.70033 19.9067 7.20033 20.0009 6.66699 20C5.55588 20 4.61144 19.6111 3.83366 18.8333C3.05588 18.0555 2.66699 17.1111 2.66699 16C2.66699 14.8889 3.05588 13.9444 3.83366 13.1667C4.61144 12.3889 5.55588 12 6.66699 12C7.20033 12 7.70033 12.0947 8.16699 12.284C8.63366 12.4733 9.04477 12.7342 9.40033 13.0667L18.767 7.59999C18.7225 7.44443 18.695 7.29466 18.6843 7.15066C18.6737 7.00666 18.6679 6.84532 18.667 6.66666C18.667 5.55555 19.0559 4.6111 19.8337 3.83332C20.6114 3.05555 21.5559 2.66666 22.667 2.66666C23.7781 2.66666 24.7225 3.05555 25.5003 3.83332C26.2781 4.6111 26.667 5.55555 26.667 6.66666C26.667 7.77777 26.2781 8.72221 25.5003 9.49999C24.7225 10.2778 23.7781 10.6667 22.667 10.6667C22.1337 10.6667 21.6337 10.572 21.167 10.3827C20.7003 10.1933 20.2892 9.93243 19.9337 9.59999L10.567 15.0667C10.6114 15.2222 10.6394 15.3724 10.651 15.5173C10.6625 15.6622 10.6679 15.8231 10.667 16C10.6661 16.1769 10.6608 16.3382 10.651 16.484C10.6412 16.6298 10.6132 16.7795 10.567 16.9333L19.9337 22.4C20.2892 22.0667 20.7003 21.8058 21.167 21.6173C21.6337 21.4289 22.1337 21.3342 22.667 21.3333C23.7781 21.3333 24.7225 21.7222 25.5003 22.5C26.2781 23.2778 26.667 24.2222 26.667 25.3333C26.667 26.4444 26.2781 27.3889 25.5003 28.1667C24.7225 28.9444 23.7781 29.3333 22.667 29.3333Z" fill="currentColor"/></symbol>
<symbol id="star" viewBox="0 0 100 100"><path d="M50 0C53.1108 26.218 73.782 46.8892 100 50C73.782 53.1108 53.1108 73.782 50 100C46.8892 73.782 26.218 53.1108 0 50C26.218 46.8892 46.8892 26.218 50 0Z" fill="currentColor"/></symbol>
<symbol id="user-fill" viewBox="0 0 30 30"><path d="M8.74902 7.46698C8.74902 10.8947 11.5532 13.6841 14.999 13.6841C18.4449 13.6841 21.249 10.8947 21.249 7.46698C21.249 4.03929 18.4449 1.24988 14.999 1.24988C11.5532 1.24988 8.74902 4.03929 8.74902 7.46698ZM26.1101 27.4999H27.499V26.1183C27.499 20.7868 23.1365 16.4472 17.7768 16.4472H12.2212C6.86013 16.4472 2.49902 20.7868 2.49902 26.1183V27.4999H26.1101Z" fill="currentColor"/></symbol>
<symbol id="user" viewBox="0 0 22 23"><path opacity="0.8" d="M19.3311 20.333V19.4121C19.3311 15.969 16.6015 13.1459 13.1826 12.9727L12.8496 12.9648H9.14551L8.8125 12.9727C5.39259 13.1457 2.66406 15.9688 2.66406 19.4121V20.333H19.3311ZM15.1641 6.97754C15.164 4.6925 13.2942 2.83301 10.9971 2.83301C8.70007 2.83318 6.83117 4.69261 6.83105 6.97754L6.83594 7.19043C6.94762 9.37705 8.77169 11.1219 10.9971 11.1221C13.2943 11.1221 15.1641 9.26267 15.1641 6.97754ZM17.1641 6.97754C17.1641 8.68341 16.4645 10.2238 15.3398 11.3359C18.8007 12.3968 21.3311 15.6093 21.3311 19.4121V22.333H0.664062V19.4121C0.664062 15.6095 3.1932 12.3969 6.6543 11.3359C5.5298 10.2238 4.83105 8.68324 4.83105 6.97754C4.83117 3.5781 7.60546 0.833183 10.9971 0.833008C14.3888 0.833008 17.164 3.578 17.1641 6.97754Z" fill="currentColor"/></symbol>
<symbol id="warn" viewBox="0 0 1024 1024"><path d="M928.99 755.83 574.6 203.25c-12.89-20.16-36.76-32.58-62.6-32.58s-49.71 12.43-62.6 32.58L95.01 755.83c-12.91 20.12-12.9 44.91.01 65.03 12.92 20.12 36.78 32.51 62.59 32.49h708.78c25.82.01 49.68-12.37 62.59-32.49 12.91-20.12 12.92-44.91.01-65.03zM554.67 768h-85.33v-85.33h85.33V768zm0-426.67v298.66h-85.33V341.32l85.33.01z" fill="#FFCD00"/></symbol>
</svg>